<svg width="739" height="911" viewBox="0 0 739 911" fill="none" xmlns="http://www.w3.org/2000/svg">
<g clip-path="url(#clip0_541_9964)">
<path d="M61.6902 345.84C64.0539 345.84 65.9702 343.924 65.9702 341.56C65.9702 339.196 64.0539 337.28 61.6902 337.28C59.3264 337.28 57.4102 339.196 57.4102 341.56C57.4102 343.924 59.3264 345.84 61.6902 345.84Z" fill="#03B3FF"/>
<path d="M69.2598 312.2C69.2598 309.84 71.1698 307.92 73.5398 307.92C75.9098 307.92 77.8198 309.83 77.8198 312.2C77.8198 314.57 75.9098 316.48 73.5398 316.48C71.1698 316.48 69.2598 314.57 69.2598 312.2Z" fill="#03B3FF"/>
<path d="M79.5498 246.5C79.5498 244.14 81.4598 242.22 83.8298 242.22C86.1998 242.22 88.1098 244.13 88.1098 246.5C88.1098 248.87 86.1998 250.78 83.8298 250.78C81.4598 250.78 79.5498 248.87 79.5498 246.5Z" fill="#03B3FF"/>
<path d="M88.6003 228.8C90.9641 228.8 92.8803 226.884 92.8803 224.52C92.8803 222.156 90.9641 220.24 88.6003 220.24C86.2365 220.24 84.3203 222.156 84.3203 224.52C84.3203 226.884 86.2365 228.8 88.6003 228.8Z" fill="#03B3FF"/>
<path d="M99.7402 187.07C99.7402 184.71 101.65 182.79 104.02 182.79C106.39 182.79 108.3 184.7 108.3 187.07C108.3 189.44 106.39 191.35 104.02 191.35C101.65 191.35 99.7402 189.44 99.7402 187.07Z" fill="#03B3FF"/>
<path d="M113.02 146.04C113.02 143.68 114.93 141.76 117.3 141.76C119.67 141.76 121.58 143.67 121.58 146.04C121.58 148.41 119.67 150.32 117.3 150.32C114.93 150.32 113.02 148.41 113.02 146.04Z" fill="#03B3FF"/>
<path d="M189.1 83.32C191.464 83.32 193.38 81.4038 193.38 79.04C193.38 76.6762 191.464 74.76 189.1 74.76C186.737 74.76 184.82 76.6762 184.82 79.04C184.82 81.4038 186.737 83.32 189.1 83.32Z" fill="#03B3FF"/>
<path d="M218.31 56.06C218.31 53.7 220.22 51.78 222.59 51.78C224.96 51.78 226.87 53.69 226.87 56.06C226.87 58.43 224.96 60.34 222.59 60.34C220.22 60.34 218.31 58.43 218.31 56.06Z" fill="#03B3FF"/>
<path d="M371.18 20.21C373.544 20.21 375.46 18.2938 375.46 15.93C375.46 13.5662 373.544 11.65 371.18 11.65C368.817 11.65 366.9 13.5662 366.9 15.93C366.9 18.2938 368.817 20.21 371.18 20.21Z" fill="#03B3FF"/>
<path d="M482.19 30.82C484.554 30.82 486.47 28.9038 486.47 26.54C486.47 24.1762 484.554 22.26 482.19 22.26C479.826 22.26 477.91 24.1762 477.91 26.54C477.91 28.9038 479.826 30.82 482.19 30.82Z" fill="#03B3FF"/>
<path d="M548.01 58.56C550.374 58.56 552.29 56.6438 552.29 54.28C552.29 51.9162 550.374 50 548.01 50C545.647 50 543.73 51.9162 543.73 54.28C543.73 56.6438 545.647 58.56 548.01 58.56Z" fill="#03B3FF"/>
<path d="M656.6 211.1C658.964 211.1 660.88 209.184 660.88 206.82C660.88 204.456 658.964 202.54 656.6 202.54C654.237 202.54 652.32 204.456 652.32 206.82C652.32 209.184 654.237 211.1 656.6 211.1Z" fill="#03B3FF"/>
<path d="M669.47 264.58C671.834 264.58 673.75 262.664 673.75 260.3C673.75 257.936 671.834 256.02 669.47 256.02C667.107 256.02 665.19 257.936 665.19 260.3C665.19 262.664 667.107 264.58 669.47 264.58Z" fill="#03B3FF"/>
<path d="M675.6 340.12C677.964 340.12 679.88 338.204 679.88 335.84C679.88 333.476 677.964 331.56 675.6 331.56C673.237 331.56 671.32 333.476 671.32 335.84C671.32 338.204 673.237 340.12 675.6 340.12Z" fill="#03B3FF"/>
<path d="M681.97 409.56C684.334 409.56 686.25 407.644 686.25 405.28C686.25 402.916 684.334 401 681.97 401C679.607 401 677.69 402.916 677.69 405.28C677.69 407.644 679.607 409.56 681.97 409.56Z" fill="#03B3FF"/>
<path d="M682.54 519.87C684.904 519.87 686.82 517.954 686.82 515.59C686.82 513.226 684.904 511.31 682.54 511.31C680.176 511.31 678.26 513.226 678.26 515.59C678.26 517.954 680.176 519.87 682.54 519.87Z" fill="#03B3FF"/>
<path d="M672.51 535.56C672.51 533.2 674.42 531.28 676.79 531.28C679.16 531.28 681.07 533.19 681.07 535.56C681.07 537.93 679.16 539.84 676.79 539.84C674.42 539.84 672.51 537.93 672.51 535.56Z" fill="#03B3FF"/>
<path d="M656.4 622.81C658.764 622.81 660.68 620.894 660.68 618.53C660.68 616.166 658.764 614.25 656.4 614.25C654.036 614.25 652.12 616.166 652.12 618.53C652.12 620.894 654.036 622.81 656.4 622.81Z" fill="#03B3FF"/>
<path d="M614.46 695.59C616.823 695.59 618.74 693.674 618.74 691.31C618.74 688.946 616.823 687.03 614.46 687.03C612.096 687.03 610.18 688.946 610.18 691.31C610.18 693.674 612.096 695.59 614.46 695.59Z" fill="#03B3FF"/>
<path d="M578.97 752.47C581.334 752.47 583.25 750.554 583.25 748.19C583.25 745.826 581.334 743.91 578.97 743.91C576.607 743.91 574.69 745.826 574.69 748.19C574.69 750.554 576.607 752.47 578.97 752.47Z" fill="#03B3FF"/>
<path d="M458.96 880.46C461.323 880.46 463.24 878.544 463.24 876.18C463.24 873.816 461.323 871.9 458.96 871.9C456.596 871.9 454.68 873.816 454.68 876.18C454.68 878.544 456.596 880.46 458.96 880.46Z" fill="#03B3FF"/>
<path d="M311.03 881.1C313.394 881.1 315.31 879.184 315.31 876.82C315.31 874.456 313.394 872.54 311.03 872.54C308.666 872.54 306.75 874.456 306.75 876.82C306.75 879.184 308.666 881.1 311.03 881.1Z" fill="#03B3FF"/>
<path d="M178.92 792.4C181.283 792.4 183.2 790.484 183.2 788.12C183.2 785.756 181.283 783.84 178.92 783.84C176.556 783.84 174.64 785.756 174.64 788.12C174.64 790.484 176.556 792.4 178.92 792.4Z" fill="#03B3FF"/>
<path d="M82.3298 668.42C84.6936 668.42 86.6098 666.504 86.6098 664.14C86.6098 661.776 84.6936 659.86 82.3298 659.86C79.966 659.86 78.0498 661.776 78.0498 664.14C78.0498 666.504 79.966 668.42 82.3298 668.42Z" fill="#03B3FF"/>
<path d="M40.29 490.45C40.29 488.09 42.2 486.17 44.57 486.17C46.94 486.17 48.85 488.08 48.85 490.45C48.85 492.82 46.94 494.73 44.57 494.73C42.2 494.73 40.29 492.82 40.29 490.45Z" fill="#03B3FF"/>
<path d="M4.28 317.05C6.64378 317.05 8.56 315.134 8.56 312.77C8.56 310.406 6.64378 308.49 4.28 308.49C1.91622 308.49 0 310.406 0 312.77C0 315.134 1.91622 317.05 4.28 317.05Z" fill="#03B3FF"/>
<path d="M5.86035 262.97C5.86035 260.61 7.77035 258.69 10.1404 258.69C12.5104 258.69 14.4204 260.6 14.4204 262.97C14.4204 265.34 12.5104 267.25 10.1404 267.25C7.77035 267.25 5.86035 265.34 5.86035 262.97Z" fill="#03B3FF"/>
<path d="M79.9001 102.7C82.2639 102.7 84.1801 100.784 84.1801 98.42C84.1801 96.0562 82.2639 94.14 79.9001 94.14C77.5363 94.14 75.6201 96.0562 75.6201 98.42C75.6201 100.784 77.5363 102.7 79.9001 102.7Z" fill="#03B3FF"/>
<path d="M37.9802 228.54C40.344 228.54 42.2602 226.624 42.2602 224.26C42.2602 221.896 40.344 219.98 37.9802 219.98C35.6164 219.98 33.7002 221.896 33.7002 224.26C33.7002 226.624 35.6164 228.54 37.9802 228.54Z" fill="#03B3FF"/>
<path d="M68.2995 159.46C70.6633 159.46 72.5795 157.544 72.5795 155.18C72.5795 152.816 70.6633 150.9 68.2995 150.9C65.9358 150.9 64.0195 152.816 64.0195 155.18C64.0195 157.544 65.9358 159.46 68.2995 159.46Z" fill="#03B3FF"/>
<path d="M128.95 100.2C131.314 100.2 133.23 98.2838 133.23 95.92C133.23 93.5562 131.314 91.64 128.95 91.64C126.586 91.64 124.67 93.5562 124.67 95.92C124.67 98.2838 126.586 100.2 128.95 100.2Z" fill="#03B3FF"/>
<path d="M175.32 44.18C175.32 41.82 177.23 39.9 179.6 39.9C181.97 39.9 183.88 41.81 183.88 44.18C183.88 46.55 181.97 48.46 179.6 48.46C177.23 48.46 175.32 46.55 175.32 44.18Z" fill="#03B3FF"/>
<path d="M691.97 569.82C694.334 569.82 696.25 567.904 696.25 565.54C696.25 563.176 694.334 561.26 691.97 561.26C689.607 561.26 687.69 563.176 687.69 565.54C687.69 567.904 689.607 569.82 691.97 569.82Z" fill="#03B3FF"/>
<path d="M688.58 653.81C690.944 653.81 692.86 651.894 692.86 649.53C692.86 647.166 690.944 645.25 688.58 645.25C686.216 645.25 684.3 647.166 684.3 649.53C684.3 651.894 686.216 653.81 688.58 653.81Z" fill="#03B3FF"/>
<path d="M649.27 703.5C651.634 703.5 653.55 701.584 653.55 699.22C653.55 696.856 651.634 694.94 649.27 694.94C646.906 694.94 644.99 696.856 644.99 699.22C644.99 701.584 646.906 703.5 649.27 703.5Z" fill="#03B3FF"/>
<path d="M601.58 771C603.944 771 605.86 769.084 605.86 766.72C605.86 764.356 603.944 762.44 601.58 762.44C599.216 762.44 597.3 764.356 597.3 766.72C597.3 769.084 599.216 771 601.58 771Z" fill="#03B3FF"/>
<path d="M543.43 836.96C545.794 836.96 547.71 835.044 547.71 832.68C547.71 830.316 545.794 828.4 543.43 828.4C541.067 828.4 539.15 830.316 539.15 832.68C539.15 835.044 541.067 836.96 543.43 836.96Z" fill="#03B3FF"/>
<path d="M624.62 646.37C626.984 646.37 628.9 644.454 628.9 642.09C628.9 639.726 626.984 637.81 624.62 637.81C622.256 637.81 620.34 639.726 620.34 642.09C620.34 644.454 622.256 646.37 624.62 646.37Z" fill="#03B3FF"/>
<path d="M588.299 725.12C590.663 725.12 592.58 723.204 592.58 720.84C592.58 718.476 590.663 716.56 588.299 716.56C585.936 716.56 584.02 718.476 584.02 720.84C584.02 723.204 585.936 725.12 588.299 725.12Z" fill="#03B3FF"/>
<path d="M530.83 812.65C533.194 812.65 535.11 810.734 535.11 808.37C535.11 806.006 533.194 804.09 530.83 804.09C528.466 804.09 526.55 806.006 526.55 808.37C526.55 810.734 528.466 812.65 530.83 812.65Z" fill="#03B3FF"/>
<path d="M491.8 863.18C494.163 863.18 496.08 861.264 496.08 858.9C496.08 856.536 494.163 854.62 491.8 854.62C489.436 854.62 487.52 856.536 487.52 858.9C487.52 861.264 489.436 863.18 491.8 863.18Z" fill="#03B3FF"/>
<path d="M701.87 701.65C701.87 699.29 703.78 697.37 706.15 697.37C708.52 697.37 710.43 699.28 710.43 701.65C710.43 704.02 708.52 705.93 706.15 705.93C703.78 705.93 701.87 704.02 701.87 701.65Z" fill="#03B3FF"/>
<path d="M666.71 772.65C669.073 772.65 670.99 770.734 670.99 768.37C670.99 766.006 669.073 764.09 666.71 764.09C664.346 764.09 662.43 766.006 662.43 768.37C662.43 770.734 664.346 772.65 666.71 772.65Z" fill="#03B3FF"/>
<path d="M606.05 840.85C606.05 838.49 607.96 836.57 610.33 836.57C612.7 836.57 614.61 838.48 614.61 840.85C614.61 843.22 612.7 845.13 610.33 845.13C607.96 845.13 606.05 843.22 606.05 840.85Z" fill="#03B3FF"/>
<path d="M730.3 812.46C730.3 810.1 732.21 808.18 734.58 808.18C736.95 808.18 738.86 810.09 738.86 812.46C738.86 814.83 736.95 816.74 734.58 816.74C732.21 816.74 730.3 814.83 730.3 812.46Z" fill="#03B3FF"/>
<path d="M625.02 906.59C625.02 904.23 626.929 902.31 629.299 902.31C631.669 902.31 633.58 904.22 633.58 906.59C633.58 908.96 631.669 910.87 629.299 910.87C626.929 910.87 625.02 908.96 625.02 906.59Z" fill="#03B3FF"/>
<path d="M145.99 27.89C148.354 27.89 150.27 25.9738 150.27 23.61C150.27 21.2462 148.354 19.33 145.99 19.33C143.626 19.33 141.71 21.2462 141.71 23.61C141.71 25.9738 143.626 27.89 145.99 27.89Z" fill="#03B3FF"/>
<path d="M68.0495 129.88C70.4133 129.88 72.3295 127.964 72.3295 125.6C72.3295 123.236 70.4133 121.32 68.0495 121.32C65.6858 121.32 63.7695 123.236 63.7695 125.6C63.7695 127.964 65.6858 129.88 68.0495 129.88Z" fill="#03B3FF"/>
<path d="M71.4597 39.1C73.8235 39.1 75.7397 37.1838 75.7397 34.82C75.7397 32.4562 73.8235 30.54 71.4597 30.54C69.0959 30.54 67.1797 32.4562 67.1797 34.82C67.1797 37.1838 69.0959 39.1 71.4597 39.1Z" fill="#03B3FF"/>
<path d="M2.87988 114.98C2.87988 112.62 4.78988 110.7 7.15988 110.7C9.52988 110.7 11.4399 112.61 11.4399 114.98C11.4399 117.35 9.52988 119.26 7.15988 119.26C4.78988 119.26 2.87988 117.35 2.87988 114.98Z" fill="#03B3FF"/>
<path d="M33.9001 19.95C36.2639 19.95 38.1801 18.0338 38.1801 15.67C38.1801 13.3062 36.2639 11.39 33.9001 11.39C31.5363 11.39 29.6201 13.3062 29.6201 15.67C29.6201 18.0338 31.5363 19.95 33.9001 19.95Z" fill="#03B3FF"/>
<path d="M197.3 4.28C197.3 1.92 199.21 0 201.58 0C203.95 0 205.86 1.91 205.86 4.28C205.86 6.65 203.95 8.56 201.58 8.56C199.21 8.56 197.3 6.65 197.3 4.28Z" fill="#03B3FF"/>
<path d="M375.37 800.47C375.17 800.47 374.97 800.46 374.77 800.43C323.96 802.04 302.9 776.17 302.68 775.89C288.15 758.59 240.9 713.39 240.43 712.94C193.56 668.14 180.59 599.26 180.46 598.57C178.47 588 175.33 571.26 171.88 552.73L171.78 552.18L171.24 552.34C165.62 554.07 160.66 553.46 156.5 550.51C143.11 541.02 141.81 510.41 141.79 510.09C140.86 497.54 127.83 473.62 127.28 472.61L127.15 472.45C113.12 461.59 116.59 442.37 116.62 442.18L116.64 442.06L116.6 441.94C106.78 409.65 110.12 395.4 114.66 389.13C118.34 384.04 123.08 383.87 123.13 383.87L123.26 383.85C132.55 381.19 143.11 394.71 143.55 395.28L143.62 395.37L144.56 395.84L144.45 394.91C135.12 319.42 137.81 270.98 137.84 270.5C137.87 269.99 140.86 219.1 171.49 169.2C189.48 139.9 213.33 116.67 242.4 100.16C278.63 79.58 323.08 69.44 374.61 70V70.14C374.94 70.06 375.27 70 375.61 69.95V69.5V69.01H375.12C323.26 68.37 278.41 78.56 241.91 99.29C212.7 115.89 188.72 139.23 170.64 168.68C139.89 218.78 136.87 269.9 136.84 270.45C136.8 271.08 134.17 318.84 143.25 393.33C140.18 389.76 131.31 380.57 123.05 382.87C122.4 382.9 117.67 383.31 113.89 388.51C109.21 394.95 105.72 409.47 115.63 442.12C115.35 443.83 112.64 462.39 126.46 473.18C127.35 474.83 139.92 498.22 140.8 510.15C140.85 511.43 142.14 541.55 155.93 551.33C160.22 554.37 165.29 555.09 171.01 553.46C174.43 571.77 177.52 588.29 179.49 598.76C179.62 599.45 192.65 668.64 239.75 713.67C240.23 714.12 287.43 759.29 301.92 776.53C302.14 776.8 307.36 783.32 319.07 789.71C329.15 795.21 346 801.51 370.25 801.51C371.92 801.51 373.63 801.48 375.38 801.42L375.86 801.4V800.44C375.7 800.46 375.54 800.47 375.38 800.47H375.37Z" fill="#03B3FF"/>
<path d="M636.821 388.5C633.041 383.3 628.311 382.89 627.661 382.86C619.431 380.57 610.531 389.77 607.461 393.33C616.551 318.71 613.901 270.91 613.871 270.44C613.841 269.93 610.841 218.79 580.071 168.67C561.991 139.22 538.021 115.88 508.801 99.28C472.301 78.54 427.471 68.36 375.591 68.99H375.101V70.02C375.571 69.93 376.061 69.87 376.571 69.87C376.971 69.87 377.351 69.92 377.711 69.98C428.461 69.66 472.441 79.78 508.291 100.14C537.351 116.65 561.211 139.87 579.201 169.16C609.851 219.07 612.841 269.98 612.871 270.5C612.901 270.98 615.581 319.41 606.261 394.91L606.031 396.73L607.151 395.27C607.261 395.13 618.091 381.17 627.441 383.84L627.571 383.86C627.571 383.86 632.361 384.03 636.041 389.12C640.571 395.39 643.911 409.64 634.101 441.93L634.061 442.05L634.081 442.17C634.121 442.36 637.601 461.57 623.551 472.44L623.421 472.6C622.871 473.61 609.841 497.54 608.911 510.1C608.901 510.41 607.591 541.01 594.201 550.51C590.041 553.46 585.081 554.08 579.461 552.34L578.921 552.18L578.821 552.73C575.361 571.26 572.231 588 570.231 598.57C570.111 599.26 557.131 668.14 510.261 712.94C509.781 713.39 462.541 758.6 448.001 775.9C447.791 776.16 426.761 802.06 375.951 800.43C375.761 800.45 375.571 800.47 375.371 800.47C375.191 800.47 375.021 800.46 374.851 800.44V800.92V801.4L375.331 801.42C377.081 801.48 378.791 801.51 380.471 801.51C428.491 801.51 448.581 776.79 448.781 776.54C463.271 759.29 510.481 714.12 510.961 713.67C558.071 668.64 571.101 599.45 571.221 598.76C573.191 588.3 576.291 571.78 579.701 553.46C585.411 555.09 590.491 554.37 594.781 551.33C608.571 541.55 609.861 511.42 609.901 510.16C610.791 498.21 623.351 474.82 624.241 473.17C638.071 462.39 635.361 443.82 635.071 442.11C644.981 409.46 641.491 394.94 636.811 388.5H636.821Z" fill="#03B3FF"/>
<path d="M311.93 722.89L270.81 692.56L271.23 692.15L310.44 653.69L261.58 638L255.46 583.75L295.53 543.51L243.02 474.5L279.57 433.05L234.22 366.56L268.93 323.8L261.77 217.11L295.69 175.73L293.9 122.6L293.31 77.21L294.31 77.2L294.9 122.57L296.7 176.07L296.58 176.21L262.79 217.44L269.96 324.12L269.84 324.27L235.46 366.61L280.83 433.13L280.58 433.42L244.31 474.55L296.85 543.6L256.51 584.11L262.5 637.24L312.32 653.25L272.35 692.45L312.52 722.08L311.93 722.89Z" fill="#03B3FF"/>
<path d="M217.47 623.92L171.26 551.79V551.65L168.53 448.21L166.98 345.27L135.74 286.24L169.44 241.41L172.32 162.59L172.84 163.25L230.95 113.71L231.28 114.02L296.14 175.17L330.89 133.31L375.34 206.88L375.09 207.16L342.66 243.35L342.35 243.25L262.11 217.76L198.57 197.31L198.48 197.19L173.21 165.35L170.41 241.77L136.9 286.34L167.96 345.02V345.14L169.51 448.19L172.23 551.48L218.29 623.37L217.45 623.91L217.47 623.92ZM199.18 196.45L262.43 216.81L342.36 242.2L374.11 206.76L330.77 135.02L296.24 176.62L230.93 115.05L173.47 164.04L199.19 196.45H199.18Z" fill="#03B3FF"/>
<path d="M296.52 176.55L230.39 151.68L172.88 164.46L172.66 163.48L230.47 150.64L230.61 150.69L295.87 175.24L327.02 71.47L327.98 71.75L296.52 176.55Z" fill="#03B3FF"/>
<path d="M310.83 337.38L269.3 324.44L199 301.34L198.9 301.15L169.56 241.96L145.09 228.99L145.55 228.11L170.31 241.22L170.38 241.37L199.71 300.52L269.6 323.48L310.72 336.29L374.87 301.01L342.08 243.02L342.95 242.52L376.24 301.4L375.79 301.64L310.83 337.38Z" fill="#03B3FF"/>
<path d="M280.36 433.67L280.04 433.56L202.38 406.84L202.29 406.67C189.58 383.81 170.45 349.84 167.54 345.85C164.74 347.51 143.75 345.92 139.48 345.58L139.56 344.58C152.08 345.59 165.62 346.02 166.97 345.04V344.75L167.36 344.59C167.93 344.43 168.35 344.32 185.91 375.4C194.01 389.74 202.11 404.29 203.06 406.01L280.04 432.49L317.22 390.27L355.68 351.52L310.61 337.29L310.91 336.34L357.54 351.06L317.95 390.95L280.34 433.65L280.36 433.67Z" fill="#03B3FF"/>
<path d="M378.59 462.22L324.66 447.36L280.05 433.57L280.35 432.61L324.94 446.4L377.3 460.82L356.08 351.15L375.52 330.73L376.25 331.42L357.16 351.47L378.59 462.22Z" fill="#03B3FF"/>
<path d="M376.27 570.72L332.46 502.81L333.3 502.27L375.34 567.43L377.43 462.07L243.6 475.03L243.5 475L168.86 448.67L169.19 447.72L243.73 474.02L378.46 460.97L376.27 570.72Z" fill="#03B3FF"/>
<path d="M376.18 675.12L310.93 653.85L310.88 653.55L293.37 543.18L207.84 515.97L208.14 515.02L294.26 542.41L311.82 653.09L375.18 673.74L375.3 569.07H376.3L376.18 675.12Z" fill="#03B3FF"/>
<path d="M375.741 800.16L334.411 780.87L311.581 722.19L366.191 701.76L358.791 669.34L310.551 653.73L374.981 569.33L292.891 543.02L332.341 502.37L324.021 445.07L310.261 336.78L310.301 336.68L342.001 242.72L330.311 134.04L330.411 133.89L374.051 68.76L374.881 69.32L331.351 134.29L343.021 242.83L342.991 242.93L311.291 336.89L325.011 444.94L333.411 502.71L294.731 542.56L376.631 568.81L312.201 653.21L359.641 668.57L367.361 702.39L312.881 722.77L335.201 780.14L374.751 798.59L375.181 674.43H376.181L375.741 800.16Z" fill="#03B3FF"/>
<path d="M367.327 701.99L366.331 702.077L374.81 799.378L375.806 799.292L367.327 701.99Z" fill="#03B3FF"/>
<path d="M246.98 719.46L217.33 623.51L255.1 584.13L170.85 551.82L207.36 515.41L168.42 448.15L202.22 406.26L198.85 300.94L198.38 196.72L198.47 196.59L229.93 151L230.44 114.15L230.61 114L260.41 88.32L261.06 89.08L231.44 114.61L230.93 151.32L230.84 151.44L199.38 197.03L199.85 300.92L203.23 406.6L169.63 448.24L208.61 515.57L208.34 515.85L172.65 551.44L256.87 583.73L218.45 623.78L247.43 717.52L271.38 691.98L271.63 692.01L366.83 701.58L374.72 701.57V702.57H366.78L271.78 693.03L246.98 719.46Z" fill="#03B3FF"/>
<path d="M272.41 694.39L216.5 622.68L262.48 637.23L262.53 637.53L272.41 694.39ZM219.27 624.61L270.74 690.62L261.6 638L219.27 624.61Z" fill="#03B3FF"/>
<path d="M334.77 781L303.82 778.66L311.66 722.95L247.18 718.99L247.24 717.99L312.8 722.02L304.96 777.74L334.85 780L334.77 781Z" fill="#03B3FF"/>
<path d="M183.139 611.891L182.832 612.843L217.742 624.098L218.049 623.147L183.139 611.891Z" fill="#03B3FF"/>
<path d="M126.74 472.07L115.98 440.91V440.82L118.25 382.27L143.8 393.8L169.68 448.4L169.27 448.63L126.74 472.07ZM116.98 440.76L127.29 470.62L168.37 447.98L143.05 394.56L119.19 383.79L116.99 440.76H116.98Z" fill="#03B3FF"/>
<path d="M174.37 553.21L149.73 542.8L146.06 462.66C145.54 460.67 145.62 460.59 145.73 460.48L145.97 460.72L142.92 394.19L143.92 394.15L147.06 462.64C150 473.04 165.51 524.15 174.06 552.18L174.37 553.2V553.21ZM150.7 542.13L172.79 551.46C171.37 546.79 165.29 526.83 159.24 506.85C152.43 484.35 148.97 472.85 147.26 466.93L150.71 542.13H150.7Z" fill="#03B3FF"/>
<path d="M443.96 722.89L443.36 722.08L483.54 692.45L443.57 653.25L493.39 637.24L499.38 584.11L459.03 543.6L459.3 543.25L511.58 474.55L475.05 433.13L520.42 366.61L485.93 324.12L485.94 323.93L493.1 217.44L459.19 176.07L459.2 175.88L460.98 122.56L461.58 77.2L462.58 77.21L461.98 122.59L460.2 175.73L494.12 217.11L494.11 217.31L486.95 323.8L521.67 366.56L476.32 433.05L512.87 474.5L512.62 474.83L460.36 543.51L500.43 583.75L500.4 583.98L494.31 638L445.45 653.69L485.08 692.56L443.96 722.89Z" fill="#03B3FF"/>
<path d="M538.42 623.92L537.58 623.38L583.64 551.49L586.36 448.19L587.91 345.02L587.97 344.91L618.97 286.34L585.46 241.77V241.61L582.66 165.34L557.3 197.3L557.16 197.35L493.77 217.75L413.23 243.34L413.01 243.1L380.55 206.87L380.74 206.55L425 133.29L459.75 175.15L524.94 113.69L525.28 113.98L583.05 163.23L583.57 162.57L586.45 241.39L620.15 286.22L620 286.5L588.91 345.25L587.36 448.18L584.63 551.76L584.55 551.88L538.41 623.89L538.42 623.92ZM381.78 206.76L413.53 242.2L493.46 216.8L556.71 196.44L582.43 164.03L524.97 115.04L459.66 176.61L425.13 135.01L381.79 206.75L381.78 206.76Z" fill="#03B3FF"/>
<path d="M459.37 176.55L459.22 176.04L427.91 71.75L428.87 71.47L460.02 175.24L525.42 150.64L583.22 163.48L583.01 164.46L525.49 151.68L459.37 176.55Z" fill="#03B3FF"/>
<path d="M445.06 337.38L379.65 301.4L412.94 242.52L413.81 243.02L381.02 301.01L445.17 336.29L486.29 323.48L556.18 300.52L585.58 241.22L610.33 228.11L610.8 228.99L586.33 241.96L556.89 301.34L556.69 301.4L486.6 324.43L445.06 337.38Z" fill="#03B3FF"/>
<path d="M377.3 462.22L398.72 351.47L379.64 331.42L380.36 330.73L399.8 351.15L399.76 351.41L378.59 460.82L430.97 446.4L475.54 432.61L475.83 433.57L431.25 447.36L377.3 462.22Z" fill="#03B3FF"/>
<path d="M379.62 570.72L377.43 460.97L377.99 461.02L512.16 474.02L586.7 447.72L587.03 448.67L512.28 475.03L512.18 475.02L378.46 462.07L380.55 567.43L422.59 502.27L423.43 502.81L379.62 570.72Z" fill="#03B3FF"/>
<path d="M379.71 675.12L379.59 569.07H380.59L380.7 673.74L444.06 653.09L461.63 542.41L461.92 542.32L547.75 515.02L548.05 515.97L462.52 543.18L444.96 653.85L379.71 675.12Z" fill="#03B3FF"/>
<path d="M380.14 800.16L379.71 674.43H380.71L381.14 798.59L420.69 780.14L443.01 722.77L388.53 702.39L396.25 668.57L396.52 668.48L443.68 653.21L379.26 568.81L461.16 542.56L422.48 502.71L422.52 502.47L430.88 444.93L444.6 336.89L412.87 242.83L424.54 134.29L381 69.32L381.83 68.76L425.57 134.04L425.55 134.22L413.88 242.72L445.62 336.78L445.61 336.9L431.87 445.07L423.54 502.37L463 543.02L380.91 569.33L445.34 653.73L397.1 669.34L389.7 701.76L444.31 722.19L421.47 780.87L380.14 800.16Z" fill="#03B3FF"/>
<path d="M388.557 701.968L380.163 799.277L381.159 799.363L389.553 702.054L388.557 701.968Z" fill="#03B3FF"/>
<path d="M508.9 719.46L484.11 693.03L389.16 702.57H381.16V701.57H389.11L484.5 691.98L484.67 692.16L508.46 717.52L537.43 623.78L499.02 583.73L583.24 551.44L547.28 515.57L547.47 515.24L586.26 448.24L552.65 406.6L556.04 300.91L556.5 197.03L524.96 151.32L524.45 114.61L494.83 89.08L495.48 88.32L525.44 114.15L525.96 151L557.5 196.72V196.88L557.04 300.93L553.67 406.26L587.47 448.15L587.29 448.45L548.53 515.41L585.03 551.82L500.78 584.13L538.56 623.51L508.9 719.46Z" fill="#03B3FF"/>
<path d="M483.47 694.39L493.4 637.23L539.38 622.68L483.47 694.39ZM494.28 638L485.14 690.62L536.61 624.61L494.28 638Z" fill="#03B3FF"/>
<path d="M421.12 781L421.04 780L450.93 777.74L443.09 722.02L508.65 717.99L508.71 718.99L444.23 722.95L452.07 778.66L421.12 781Z" fill="#03B3FF"/>
<path d="M572.729 611.956L537.818 623.211L538.125 624.163L573.036 612.907L572.729 611.956Z" fill="#03B3FF"/>
<path d="M629.15 472.07L628.63 471.78L586.21 448.4L612.09 393.8L612.26 393.72L637.65 382.26L637.68 383L639.92 440.9L639.89 440.99L629.16 472.06L629.15 472.07ZM587.52 447.98L628.6 470.62L638.91 440.76L636.71 383.79L612.84 394.56L587.52 447.98Z" fill="#03B3FF"/>
<path d="M581.51 553.21L581.82 552.19C590.37 524.16 605.88 473.05 608.82 462.65L611.96 394.16L612.96 394.2L609.91 460.73L610.15 460.48C610.26 460.59 610.34 460.67 609.82 462.66L606.15 542.8L581.51 553.21ZM608.63 466.92C606.91 472.84 603.46 484.35 596.65 506.84C590.6 526.83 584.52 546.78 583.1 551.45L605.19 542.12L608.64 466.91L608.63 466.92Z" fill="#03B3FF"/>
<path d="M382.48 64.97H373.41V800.42H382.48V64.97Z" fill="#03B3FF"/>
<path d="M344.4 246.85C342.63 248.62 339.77 248.62 338 246.85C336.23 245.08 336.23 242.22 338 240.45C339.77 238.68 342.63 238.68 344.4 240.45C346.17 242.22 346.17 245.08 344.4 246.85Z" fill="#03B3FF"/>
<path d="M344.4 246.85C342.63 248.62 339.77 248.62 338 246.85C336.23 245.08 336.23 242.22 338 240.45C339.77 238.68 342.63 238.68 344.4 240.45C346.17 242.22 346.17 245.08 344.4 246.85Z" fill="#03B3FF"/>
<path d="M377.94 343.64C384.158 343.64 389.2 338.599 389.2 332.38C389.2 326.161 384.158 321.12 377.94 321.12C371.721 321.12 366.68 326.161 366.68 332.38C366.68 338.599 371.721 343.64 377.94 343.64Z" fill="#03B3FF"/>
<path d="M377.94 473.93C384.158 473.93 389.2 468.889 389.2 462.67C389.2 456.451 384.158 451.41 377.94 451.41C371.721 451.41 366.68 456.451 366.68 462.67C366.68 468.889 371.721 473.93 377.94 473.93Z" fill="#03B3FF"/>
<path d="M377.94 580.33C384.158 580.33 389.2 575.289 389.2 569.07C389.2 562.851 384.158 557.81 377.94 557.81C371.721 557.81 366.68 562.851 366.68 569.07C366.68 575.289 371.721 580.33 377.94 580.33Z" fill="#03B3FF"/>
<path d="M377.94 685.69C384.158 685.69 389.2 680.649 389.2 674.43C389.2 668.211 384.158 663.17 377.94 663.17C371.721 663.17 366.68 668.211 366.68 674.43C366.68 680.649 371.721 685.69 377.94 685.69Z" fill="#03B3FF"/>
<path d="M377.94 811.67C384.158 811.67 389.2 806.629 389.2 800.41C389.2 794.191 384.158 789.15 377.94 789.15C371.721 789.15 366.68 794.191 366.68 800.41C366.68 806.629 371.721 811.67 377.94 811.67Z" fill="#03B3FF"/>
<path d="M377.94 314.47C384.158 314.47 389.2 309.429 389.2 303.21C389.2 296.991 384.158 291.95 377.94 291.95C371.721 291.95 366.68 296.991 366.68 303.21C366.68 309.429 371.721 314.47 377.94 314.47Z" fill="#03B3FF"/>
<path d="M377.94 218.18C384.158 218.18 389.2 213.139 389.2 206.92C389.2 200.701 384.158 195.66 377.94 195.66C371.721 195.66 366.68 200.701 366.68 206.92C366.68 213.139 371.721 218.18 377.94 218.18Z" fill="#03B3FF"/>
<path d="M377.94 321.6C388.096 321.6 396.33 313.367 396.33 303.21C396.33 293.053 388.096 284.82 377.94 284.82C367.783 284.82 359.55 293.053 359.55 303.21C359.55 313.367 367.783 321.6 377.94 321.6Z" fill="#03B3FF"/>
<path d="M377.94 79.14C384.158 79.14 389.2 74.0987 389.2 67.88C389.2 61.6613 384.158 56.62 377.94 56.62C371.721 56.62 366.68 61.6613 366.68 67.88C366.68 74.0987 371.721 79.14 377.94 79.14Z" fill="#03B3FF"/>
<path d="M411.48 246.85C413.25 248.62 416.11 248.62 417.88 246.85C419.65 245.08 419.65 242.22 417.88 240.45C416.11 238.68 413.25 238.68 411.48 240.45C409.71 242.22 409.71 245.08 411.48 246.85Z" fill="#03B3FF"/>
<path d="M411.48 246.85C413.25 248.62 416.11 248.62 417.88 246.85C419.65 245.08 419.65 242.22 417.88 240.45C416.11 238.68 413.25 238.68 411.48 240.45C409.71 242.22 409.71 245.08 411.48 246.85Z" fill="#03B3FF"/>
<g opacity="0.7">
<path d="M379.28 256.57C365.42 256.57 352.39 251.45 342.58 242.17C336.87 236.76 327.3 224.97 327.3 206.77C327.3 188.57 336.87 176.77 342.58 171.37C352.38 162.08 365.42 156.97 379.28 156.97C393.14 156.97 406.17 162.09 415.98 171.37C421.69 176.78 431.26 188.57 431.26 206.77C431.26 224.97 421.69 236.76 415.98 242.17C406.18 251.46 393.14 256.57 379.28 256.57ZM379.28 158.27C365.43 158.27 352.41 163.38 342.61 172.66C333.01 181.76 327.5 194.19 327.5 206.76C327.5 219.33 333.01 231.77 342.61 240.86C352.4 250.14 365.42 255.25 379.28 255.25C393.14 255.25 406.15 250.14 415.95 240.86C425.55 231.76 431.06 219.34 431.06 206.76C431.06 194.18 425.55 181.75 415.95 172.66C406.16 163.38 393.14 158.27 379.28 158.27Z" fill="#03B3FF"/>
</g>
<path d="M292.84 86.36C296.507 86.36 299.48 83.3872 299.48 79.72C299.48 76.0528 296.507 73.08 292.84 73.08C289.173 73.08 286.2 76.0528 286.2 79.72C286.2 83.3872 289.173 86.36 292.84 86.36Z" fill="#03B3FF"/>
<path d="M267.251 88.12C267.251 91.79 264.281 94.76 260.611 94.76C256.941 94.76 253.971 91.79 253.971 88.12C253.971 84.45 256.941 81.48 260.611 81.48C264.281 81.48 267.251 84.45 267.251 88.12Z" fill="#03B3FF"/>
<path d="M180.051 163.92C180.051 167.59 177.081 170.56 173.411 170.56C169.741 170.56 166.771 167.59 166.771 163.92C166.771 160.25 169.741 157.28 173.411 157.28C177.081 157.28 180.051 160.25 180.051 163.92Z" fill="#03B3FF"/>
<path d="M142.33 287.56C142.33 291.23 139.36 294.2 135.69 294.2C132.02 294.2 129.05 291.23 129.05 287.56C129.05 283.89 132.02 280.92 135.69 280.92C139.36 280.92 142.33 283.89 142.33 287.56Z" fill="#03B3FF"/>
<path d="M126.27 383.55C126.27 387.22 123.3 390.19 119.63 390.19C115.96 390.19 112.99 387.22 112.99 383.55C112.99 379.88 115.96 376.91 119.63 376.91C123.3 376.91 126.27 379.88 126.27 383.55Z" fill="#03B3FF"/>
<path d="M176.131 241.25C176.131 244.92 173.161 247.89 169.491 247.89C165.821 247.89 162.851 244.92 162.851 241.25C162.851 237.58 165.821 234.61 169.491 234.61C173.161 234.61 176.131 237.58 176.131 241.25Z" fill="#03B3FF"/>
<path d="M126.22 478.47C129.887 478.47 132.86 475.497 132.86 471.83C132.86 468.163 129.887 465.19 126.22 465.19C122.553 465.19 119.58 468.163 119.58 471.83C119.58 475.497 122.553 478.47 126.22 478.47Z" fill="#03B3FF"/>
<path d="M157.81 542.7C157.81 546.37 154.84 549.34 151.17 549.34C147.5 549.34 144.53 546.37 144.53 542.7C144.53 539.03 147.5 536.06 151.17 536.06C154.84 536.06 157.81 539.03 157.81 542.7Z" fill="#03B3FF"/>
<path d="M189.41 612.76C189.41 616.43 186.44 619.4 182.77 619.4C179.1 619.4 176.13 616.43 176.13 612.76C176.13 609.09 179.1 606.12 182.77 606.12C186.44 606.12 189.41 609.09 189.41 612.76Z" fill="#03B3FF"/>
<path d="M247.12 725.86C250.788 725.86 253.76 722.887 253.76 719.22C253.76 715.553 250.788 712.58 247.12 712.58C243.453 712.58 240.48 715.553 240.48 719.22C240.48 722.887 243.453 725.86 247.12 725.86Z" fill="#03B3FF"/>
<path d="M311.131 778.12C311.131 781.79 308.161 784.76 304.491 784.76C300.821 784.76 297.851 781.79 297.851 778.12C297.851 774.45 300.821 771.48 304.491 771.48C308.161 771.48 311.131 774.45 311.131 778.12Z" fill="#03B3FF"/>
<path d="M300.79 540.76C300.79 544.43 297.82 547.4 294.15 547.4C290.48 547.4 287.51 544.43 287.51 540.76C287.51 537.09 290.48 534.12 294.15 534.12C297.82 534.12 300.79 537.09 300.79 540.76Z" fill="#03B3FF"/>
<path d="M316.73 653.28C316.73 656.95 313.76 659.92 310.09 659.92C306.42 659.92 303.45 656.95 303.45 653.28C303.45 649.61 306.42 646.64 310.09 646.64C313.76 646.64 316.73 649.61 316.73 653.28Z" fill="#03B3FF"/>
<path d="M251.1 474.91C251.1 478.58 248.13 481.55 244.46 481.55C240.79 481.55 237.82 478.58 237.82 474.91C237.82 471.24 240.79 468.27 244.46 468.27C248.13 468.27 251.1 471.24 251.1 474.91Z" fill="#03B3FF"/>
<path d="M240.86 365.49C240.86 369.16 237.89 372.13 234.22 372.13C230.55 372.13 227.58 369.16 227.58 365.49C227.58 361.82 230.55 358.85 234.22 358.85C237.89 358.85 240.86 361.82 240.86 365.49Z" fill="#03B3FF"/>
<path d="M269.66 216.16C269.66 219.83 266.69 222.8 263.02 222.8C259.35 222.8 256.38 219.83 256.38 216.16C256.38 212.49 259.35 209.52 263.02 209.52C266.69 209.52 269.66 212.49 269.66 216.16Z" fill="#03B3FF"/>
<path d="M302.75 176.54C302.75 180.21 299.78 183.18 296.11 183.18C292.44 183.18 289.47 180.21 289.47 176.54C289.47 172.87 292.44 169.9 296.11 169.9C299.78 169.9 302.75 172.87 302.75 176.54Z" fill="#03B3FF"/>
<path d="M467.14 86.36C470.807 86.36 473.78 83.3872 473.78 79.72C473.78 76.0528 470.807 73.08 467.14 73.08C463.473 73.08 460.5 76.0528 460.5 79.72C460.5 83.3872 463.473 86.36 467.14 86.36Z" fill="#03B3FF"/>
<path d="M492.73 88.12C492.73 91.79 495.7 94.76 499.37 94.76C503.04 94.76 506.01 91.79 506.01 88.12C506.01 84.45 503.04 81.48 499.37 81.48C495.7 81.48 492.73 84.45 492.73 88.12Z" fill="#03B3FF"/>
<path d="M579.93 163.92C579.93 167.59 582.9 170.56 586.57 170.56C590.24 170.56 593.21 167.59 593.21 163.92C593.21 160.25 590.24 157.28 586.57 157.28C582.9 157.28 579.93 160.25 579.93 163.92Z" fill="#03B3FF"/>
<path d="M617.65 287.56C617.65 291.23 620.62 294.2 624.29 294.2C627.96 294.2 630.93 291.23 630.93 287.56C630.93 283.89 627.96 280.92 624.29 280.92C620.62 280.92 617.65 283.89 617.65 287.56Z" fill="#03B3FF"/>
<path d="M633.7 383.55C633.7 387.22 636.67 390.19 640.34 390.19C644.01 390.19 646.98 387.22 646.98 383.55C646.98 379.88 644.01 376.91 640.34 376.91C636.67 376.91 633.7 379.88 633.7 383.55Z" fill="#03B3FF"/>
<path d="M584.53 345.88C584.53 349.55 587.5 352.52 591.17 352.52C594.84 352.52 597.81 349.55 597.81 345.88C597.81 342.21 594.84 339.24 591.17 339.24C587.5 339.24 584.53 342.21 584.53 345.88Z" fill="#03B3FF"/>
<path d="M583.84 241.25C583.84 244.92 586.81 247.89 590.48 247.89C594.15 247.89 597.12 244.92 597.12 241.25C597.12 237.58 594.15 234.61 590.48 234.61C586.81 234.61 583.84 237.58 583.84 241.25Z" fill="#03B3FF"/>
<path d="M633.76 478.47C637.427 478.47 640.4 475.497 640.4 471.83C640.4 468.163 637.427 465.19 633.76 465.19C630.093 465.19 627.12 468.163 627.12 471.83C627.12 475.497 630.093 478.47 633.76 478.47Z" fill="#03B3FF"/>
<path d="M602.17 542.7C602.17 546.37 605.14 549.34 608.81 549.34C612.48 549.34 615.45 546.37 615.45 542.7C615.45 539.03 612.48 536.06 608.81 536.06C605.14 536.06 602.17 539.03 602.17 542.7Z" fill="#03B3FF"/>
<path d="M570.561 612.76C570.561 616.43 573.531 619.4 577.201 619.4C580.871 619.4 583.841 616.43 583.841 612.76C583.841 609.09 580.871 606.12 577.201 606.12C573.531 606.12 570.561 609.09 570.561 612.76Z" fill="#03B3FF"/>
<path d="M512.86 725.86C516.527 725.86 519.5 722.887 519.5 719.22C519.5 715.553 516.527 712.58 512.86 712.58C509.193 712.58 506.22 715.553 506.22 719.22C506.22 722.887 509.193 725.86 512.86 725.86Z" fill="#03B3FF"/>
<path d="M448.851 778.12C448.851 781.79 451.821 784.76 455.491 784.76C459.161 784.76 462.131 781.79 462.131 778.12C462.131 774.45 459.161 771.48 455.491 771.48C451.821 771.48 448.851 774.45 448.851 778.12Z" fill="#03B3FF"/>
<path d="M441.45 652.6C441.45 656.27 444.42 659.24 448.09 659.24C451.76 659.24 454.73 656.27 454.73 652.6C454.73 648.93 451.76 645.96 448.09 645.96C444.42 645.96 441.45 648.93 441.45 652.6Z" fill="#03B3FF"/>
<path d="M456.351 542.06C456.351 545.73 459.321 548.7 462.991 548.7C466.661 548.7 469.631 545.73 469.631 542.06C469.631 538.39 466.661 535.42 462.991 535.42C459.321 535.42 456.351 538.39 456.351 542.06Z" fill="#03B3FF"/>
<path d="M508.141 472.71C508.141 476.38 511.111 479.35 514.781 479.35C518.451 479.35 521.421 476.38 521.421 472.71C521.421 469.04 518.451 466.07 514.781 466.07C511.111 466.07 508.141 469.04 508.141 472.71Z" fill="#03B3FF"/>
<path d="M514.78 364.05C514.78 367.72 517.75 370.69 521.42 370.69C525.09 370.69 528.06 367.72 528.06 364.05C528.06 360.38 525.09 357.41 521.42 357.41C517.75 357.41 514.78 360.38 514.78 364.05Z" fill="#03B3FF"/>
<path d="M486.88 216.35C486.88 220.02 489.85 222.99 493.52 222.99C497.19 222.99 500.16 220.02 500.16 216.35C500.16 212.68 497.19 209.71 493.52 209.71C489.85 209.71 486.88 212.68 486.88 216.35Z" fill="#03B3FF"/>
<path d="M452.8 173.95C452.8 177.62 455.77 180.59 459.44 180.59C463.11 180.59 466.08 177.62 466.08 173.95C466.08 170.28 463.11 167.31 459.44 167.31C455.77 167.31 452.8 170.28 452.8 173.95Z" fill="#03B3FF"/>
</g>
<defs>
<clipPath id="clip0_541_9964">
<rect width="738.85" height="910.86" fill="white"/>
</clipPath>
</defs>
</svg>
