<svg width="157" height="28" viewBox="0 0 157 28" fill="none" xmlns="http://www.w3.org/2000/svg">
	<path d="M37 22.4864V6.6944H42.3315C44.0863 6.6944 45.566 7.00053 46.7706 7.6128C47.9901 8.22507 48.9122 9.12107 49.5368 10.3008C50.1614 11.4656 50.4737 12.8917 50.4737 14.5792C50.4737 16.2667 50.1614 17.7003 49.5368 18.88C48.9122 20.0597 47.9901 20.9557 46.7706 21.568C45.566 22.1803 44.0863 22.4864 42.3315 22.4864H37ZM39.0746 20.7168H42.1753C44.2722 20.7168 45.8263 20.2091 46.8376 19.1936C47.8488 18.1781 48.3545 16.64 48.3545 14.5792C48.3545 12.5184 47.8488 10.9877 46.8376 9.9872C45.8263 8.97173 44.2722 8.464 42.1753 8.464H39.0746V20.7168Z" fill="white"/>
	<path d="M57.9962 22.688C56.2116 22.688 54.7988 22.1728 53.7578 21.1424C52.7317 20.112 52.2186 18.6933 52.2186 16.8864C52.2186 15.6917 52.4417 14.6613 52.8878 13.7952C53.3489 12.9141 53.9809 12.2347 54.784 11.7568C55.587 11.264 56.5239 11.0176 57.5947 11.0176C58.6208 11.0176 59.4908 11.2416 60.2047 11.6896C60.9185 12.1227 61.4613 12.7424 61.8331 13.5488C62.2049 14.3552 62.3908 15.3109 62.3908 16.416V17.088H53.8024V15.8784H61.0077L60.6285 16.1696C60.6285 15.0048 60.3682 14.1013 59.8477 13.4592C59.3421 12.8171 58.5911 12.496 57.5947 12.496C56.5091 12.496 55.6688 12.8768 55.074 13.6384C54.4791 14.3851 54.1817 15.408 54.1817 16.7072V16.9088C54.1817 18.2827 54.5163 19.3205 55.1855 20.0224C55.8696 20.7243 56.8139 21.0752 58.0185 21.0752C58.6878 21.0752 59.3124 20.9781 59.8924 20.784C60.4723 20.5899 61.03 20.2688 61.5654 19.8208L62.2346 21.232C61.729 21.6949 61.097 22.0533 60.3385 22.3072C59.5949 22.5611 58.8142 22.688 57.9962 22.688Z" fill="white"/>
	<path d="M63.9727 22.4864V6H66.0027V22.4864H63.9727Z" fill="white"/>
	<path d="M73.4206 22.688C72.2457 22.688 71.3534 22.3669 70.7437 21.7248C70.1488 21.0677 69.8514 20.0821 69.8514 18.768V12.7872H67.6652V11.2192H69.8514V8.1952L71.8813 7.6352V11.2192H75.049V12.7872H71.8813V18.5888C71.8813 19.4549 72.0301 20.0747 72.3275 20.448C72.6398 20.8064 73.0859 20.9856 73.6659 20.9856C73.9634 20.9856 74.2162 20.9632 74.4244 20.9184C74.6475 20.8587 74.8482 20.7915 75.0267 20.7168V22.3968C74.8036 22.4864 74.5434 22.5536 74.2459 22.5984C73.9634 22.6581 73.6882 22.688 73.4206 22.688Z" fill="white"/>
	<path d="M81.6278 22.688C80.6463 22.688 79.7837 22.4565 79.0402 21.9936C78.2966 21.5307 77.7166 20.8587 77.3002 19.9776C76.8838 19.0965 76.6756 18.0512 76.6756 16.8416C76.6756 15.632 76.8838 14.5941 77.3002 13.728C77.7166 12.8469 78.2966 12.1749 79.0402 11.712C79.7837 11.2491 80.6463 11.0176 81.6278 11.0176C82.6242 11.0176 83.4868 11.2715 84.2155 11.7792C84.9591 12.272 85.4498 12.9515 85.6878 13.8176H85.4201L85.6655 11.2192H87.6285C87.5839 11.6672 87.5393 12.1152 87.4947 12.5632C87.4649 13.0112 87.4501 13.4517 87.4501 13.8848V22.4864H85.4201V19.9104H85.6655C85.4275 20.7616 84.9368 21.4411 84.1932 21.9488C83.4645 22.4416 82.6093 22.688 81.6278 22.688ZM82.0963 21.0752C83.1075 21.0752 83.918 20.7168 84.5278 20C85.1375 19.2832 85.4424 18.2304 85.4424 16.8416C85.4424 15.4528 85.1375 14.4075 84.5278 13.7056C83.918 13.0037 83.1075 12.6528 82.0963 12.6528C81.085 12.6528 80.2671 13.0037 79.6425 13.7056C79.0327 14.4075 78.7279 15.4528 78.7279 16.8416C78.7279 18.2304 79.0327 19.2832 79.6425 20C80.2522 20.7168 81.0701 21.0752 82.0963 21.0752Z" fill="white"/>
	<path d="M90.7726 22.4864V6.6944H92.6018L98.8033 20.7168H98.1341L104.336 6.6944H106.142V22.4864H104.246V9.472H104.938L99.1156 22.4864H97.7994L91.9772 9.472H92.6687V22.4864H90.7726Z" fill="white"/>
	<path d="M113.545 22.688C112.445 22.688 111.493 22.4565 110.69 21.9936C109.887 21.5157 109.262 20.8437 108.816 19.9776C108.37 19.0965 108.147 18.0512 108.147 16.8416C108.147 15.6469 108.37 14.6165 108.816 13.7504C109.262 12.8693 109.887 12.1973 110.69 11.7344C111.493 11.2565 112.445 11.0176 113.545 11.0176C114.646 11.0176 115.598 11.2565 116.401 11.7344C117.219 12.1973 117.843 12.8693 118.274 13.7504C118.721 14.6165 118.944 15.6469 118.944 16.8416C118.944 18.0512 118.721 19.0965 118.274 19.9776C117.843 20.8437 117.219 21.5157 116.401 21.9936C115.598 22.4565 114.646 22.688 113.545 22.688ZM113.545 21.0752C114.557 21.0752 115.367 20.7168 115.977 20C116.587 19.2832 116.891 18.2304 116.891 16.8416C116.891 15.4528 116.587 14.4075 115.977 13.7056C115.367 13.0037 114.557 12.6528 113.545 12.6528C112.519 12.6528 111.701 13.0037 111.091 13.7056C110.497 14.4075 110.199 15.4528 110.199 16.8416C110.199 18.2304 110.497 19.2832 111.091 20C111.701 20.7168 112.519 21.0752 113.545 21.0752Z" fill="white"/>
	<path d="M121.049 22.4864V13.8848C121.049 13.4517 121.034 13.0112 121.005 12.5632C120.975 12.1152 120.93 11.6672 120.871 11.2192H122.834L123.057 13.6384H122.789C123.131 12.7872 123.659 12.1376 124.373 11.6896C125.087 11.2416 125.92 11.0176 126.872 11.0176C128.195 11.0176 129.192 11.3835 129.861 12.1152C130.53 12.832 130.865 13.952 130.865 15.4752V22.4864H128.835V15.5872C128.835 14.5568 128.634 13.8176 128.232 13.3696C127.831 12.9067 127.206 12.6752 126.359 12.6752C125.347 12.6752 124.544 12.9813 123.949 13.5936C123.369 14.2059 123.079 15.0347 123.079 16.08V22.4864H121.049Z" fill="white"/>
	<path d="M138.829 22.688C137.045 22.688 135.632 22.1728 134.591 21.1424C133.565 20.112 133.051 18.6933 133.051 16.8864C133.051 15.6917 133.275 14.6613 133.721 13.7952C134.182 12.9141 134.814 12.2347 135.617 11.7568C136.42 11.264 137.357 11.0176 138.428 11.0176C139.454 11.0176 140.324 11.2416 141.038 11.6896C141.751 12.1227 142.294 12.7424 142.666 13.5488C143.038 14.3552 143.224 15.3109 143.224 16.416V17.088H134.635V15.8784H141.841L141.461 16.1696C141.461 15.0048 141.201 14.1013 140.681 13.4592C140.175 12.8171 139.424 12.496 138.428 12.496C137.342 12.496 136.502 12.8768 135.907 13.6384C135.312 14.3851 135.015 15.408 135.015 16.7072V16.9088C135.015 18.2827 135.349 19.3205 136.018 20.0224C136.702 20.7243 137.647 21.0752 138.851 21.0752C139.521 21.0752 140.145 20.9781 140.725 20.784C141.305 20.5899 141.863 20.2688 142.398 19.8208L143.068 21.232C142.562 21.6949 141.93 22.0533 141.171 22.3072C140.428 22.5611 139.647 22.688 138.829 22.688Z" fill="white"/>
	<path d="M145.81 27.5712L145.341 25.9136C146.04 25.7493 146.62 25.5552 147.081 25.3312C147.542 25.1221 147.929 24.8459 148.241 24.5024C148.553 24.1589 148.828 23.7259 149.066 23.2032L149.624 21.8592L149.579 22.7104L144.694 11.2192H146.88L150.784 20.8736H150.204L154.108 11.2192H156.205L151.052 23.36C150.739 24.0917 150.397 24.704 150.026 25.1968C149.669 25.6896 149.275 26.0928 148.843 26.4064C148.427 26.72 147.966 26.9664 147.46 27.1456C146.955 27.3248 146.404 27.4667 145.81 27.5712Z" fill="white"/>
	<path d="M27.794 14H20.7969V21H13.9942V28H20.7969C24.6076 28 27.794 24.866 27.794 21V14Z" fill="#03B3FF"/>
	<path d="M4.76837e-06 14L6.99709 14L6.99709 7L13.7998 7L13.7998 0L6.99709 5.94961e-07C3.18638 9.28242e-07 3.81883e-06 3.13401 4.15667e-06 7L4.76837e-06 14Z" fill="#03B3FF"/>
	<path d="M6.99709 28L6.99709 21L0 21C3.37219e-07 24.8733 3.14092 28 6.99709 28Z" fill="#03B3FF"/>
	<path d="M6.99709 14L6.99709 21L13.9942 21C13.9942 17.1267 10.8533 14 6.99709 14Z" fill="#03B3FF"/>
	<path d="M20.7969 6.16535e-07L20.7969 7L27.794 7C27.794 3.14222 24.6531 2.76756e-07 20.7969 6.16535e-07Z" fill="#03B3FF"/>
	<path d="M20.7969 14L20.7969 7L13.7998 7C13.7998 10.8578 16.9407 14 20.7969 14Z" fill="#03B3FF"/>
</svg>