<svg width="28" height="28" viewBox="0 0 28 28" fill="none" xmlns="http://www.w3.org/2000/svg">
	<path d="M0 7C0 3.134 3.14262 0 7.01923 0H14.0385V7H7.01923V14H0V7Z" fill="#03B3FF"/>
	<path d="M28.0769 21C28.0769 24.866 24.9343 28 21.0577 28H14.0385V21H21.0577V14H28.0769V21Z" fill="#03B3FF"/>
	<path d="M7.01923 14C10.8959 14 14.0385 17.134 14.0385 21H7.01923V14Z" fill="#03B3FF"/>
	<path d="M21.0577 0C24.9343 0 28.0769 3.13401 28.0769 7H21.0577V0Z" fill="#03B3FF"/>
	<path d="M7.01923 28C3.14262 28 0 24.866 0 21H7.01923V28Z" fill="#03B3FF"/>
	<path d="M21.0577 14C17.1811 14 14.0385 10.866 14.0385 7H21.0577V14Z" fill="#03B3FF"/>
</svg>