<svg width="40" height="40" viewBox="0 0 40 40" fill="none" xmlns="http://www.w3.org/2000/svg">
<g clip-path="url(#clip0_190_3229)">
<circle cx="20" cy="20" r="20" fill="white"/>
<path d="M29.882 14.3352H26.696C26.5136 14.3356 26.3332 14.2954 26.1667 14.2172C26.0002 14.1391 25.8513 14.0248 25.73 13.8819L24.434 12.3584C24.3389 12.2457 24.222 12.1555 24.0912 12.0937C23.9603 12.0319 23.8185 12 23.675 12C23.5315 12 23.3897 12.0319 23.2588 12.0937C23.128 12.1555 23.0111 12.2457 22.916 12.3584L21.8 13.6616C21.6195 13.8733 21.3985 14.0427 21.1514 14.1588C20.9044 14.2748 20.6367 14.3349 20.366 14.3352H2.966C2.45885 15.8415 2.1343 17.4087 2 19H18.452C18.5952 19.0002 18.737 18.9703 18.8689 18.9119C19.0009 18.8535 19.1202 18.7678 19.22 18.6601L20.756 16.9855C20.8502 16.8814 20.9638 16.7986 21.0897 16.7423C21.2156 16.686 21.3511 16.6574 21.488 16.6581H21.548C21.692 16.6581 21.8343 16.6901 21.9656 16.752C22.0969 16.8138 22.2143 16.9041 22.31 17.017L23.6 18.5404C23.7213 18.6839 23.8699 18.7989 24.0364 18.8781C24.2028 18.9573 24.3833 18.9988 24.566 19H38C37.8715 17.4095 37.553 15.8423 37.052 14.3352H29.852H29.882Z" fill="black"/>
<path d="M11.8486 28C11.9928 27.9994 12.1353 27.9692 12.268 27.9113C12.4007 27.8533 12.5207 27.7687 12.6212 27.6625L14.1784 25.9999C14.2746 25.8974 14.3899 25.8158 14.5174 25.7599C14.6449 25.7041 14.782 25.6752 14.9206 25.6749H14.9814C15.1253 25.6766 15.2673 25.7092 15.3982 25.7705C15.5291 25.8319 15.6462 25.9206 15.7418 26.0311L17.0497 27.5437C17.1725 27.6879 17.3241 27.8032 17.4941 27.8819C17.6642 27.9606 17.8487 28.0009 18.0351 28H36.4975C37.1979 26.5169 37.7032 24.9447 38 23.3247H20.2859C20.1001 23.3252 19.9162 23.2854 19.7464 23.2078C19.5766 23.1303 19.4246 23.0168 19.3004 22.8747L17.9926 21.3559C17.8961 21.244 17.7776 21.1544 17.645 21.0931C17.5123 21.0317 17.3685 21 17.223 21C17.0776 21 16.9338 21.0317 16.8011 21.0931C16.6685 21.1544 16.55 21.244 16.4535 21.3559L15.3282 22.6559C15.1466 22.8663 14.9237 23.0347 14.6741 23.1499C14.4245 23.2652 14.154 23.3248 13.8804 23.3247H2C2.2968 24.9447 2.80208 26.5169 3.50253 28H11.8486Z" fill="black"/>
<path d="M25.0373 8.99998C25.185 9.00078 25.3313 8.97329 25.4672 8.91923C25.6031 8.86516 25.7258 8.78566 25.8276 8.6856L27.4518 7.12533C27.5505 7.03063 27.6686 6.95553 27.799 6.90452C27.9295 6.8535 28.0696 6.82762 28.211 6.82841H28.2732C28.4221 6.82731 28.5695 6.85581 28.7058 6.91201C28.842 6.96822 28.9639 7.05085 29.0635 7.15444L30.4014 8.56916C30.5284 8.70148 30.6839 8.80722 30.8576 8.87946C31.0313 8.95169 31.2194 8.98879 31.4095 8.98834H35C33.248 6.81649 30.981 5.05485 28.3776 3.84217C25.7741 2.62948 22.9052 1.99887 19.9969 2C17.0886 2.00113 14.2203 2.63397 11.6179 3.84867C9.01547 5.06338 6.75004 6.82678 5 8.99998H25.0373Z" fill="black"/>
<path d="M18.3707 32.2415H13.5291C13.3396 32.2437 13.1517 32.2061 12.9782 32.131C12.8046 32.056 12.6494 31.9453 12.5227 31.8065L11.2034 30.338C11.1051 30.2316 10.9852 30.1465 10.8515 30.0883C10.7179 30.0301 10.5733 30 10.4272 30C10.281 30 10.1365 30.0301 10.0028 30.0883C9.8691 30.1465 9.74925 30.2316 9.65091 30.338L8.51568 31.595C8.33253 31.7983 8.10766 31.9611 7.8559 32.0726C7.60415 32.184 7.33125 32.2416 7.05523 32.2415H7C8.73093 34.0593 10.822 35.5081 13.144 36.4985C15.466 37.489 17.9695 38 20.5 38C23.0305 38 25.534 37.489 27.856 36.4985C30.178 35.5081 32.2691 34.0593 34 32.2415H18.3707Z" fill="black"/>
</g>
<defs>
<clipPath id="clip0_190_3229">
<rect width="40" height="40" fill="white"/>
</clipPath>
</defs>
</svg>
