<svg width="32" height="32" viewBox="0 0 32 32" fill="none" xmlns="http://www.w3.org/2000/svg">
<rect width="32" height="32" rx="16" fill="url(#paint0_linear_274_3498)"/>
<g clip-path="url(#clip0_274_3498)">
<path d="M9.66679 7.22382L26.4954 18.7143L22.3335 24.8667L5.50488 13.2857L9.66679 7.22382Z" fill="url(#paint1_linear_274_3498)"/>
<path d="M26.4956 18.7143C25.048 20.7952 20.1622 19.981 15.548 16.7238C10.8432 13.5571 8.30986 9.30476 9.66701 7.22381C11.1146 5.14285 16.0003 5.95714 20.6146 9.21428C25.3194 12.2905 27.8527 16.6333 26.4956 18.7143Z" fill="url(#paint2_linear_274_3498)"/>
<path d="M22.3335 24.7762C20.8859 26.8571 16.0001 26.0429 11.3859 22.7857C6.77157 19.5286 4.14776 15.3667 5.59538 13.1952C7.043 11.1143 11.9287 11.9286 16.543 15.1857C21.1573 18.4429 23.6906 22.6952 22.3335 24.7762Z" fill="url(#paint3_linear_274_3498)"/>
<path d="M26.4954 18.7143L22.3335 24.8667C20.8859 26.9476 16.0002 26.0429 11.3859 22.8762C10.4811 22.2429 9.66682 21.6095 8.85254 20.8857C9.48587 20.7952 10.3002 20.4333 11.1144 19.5286C12.5621 17.9905 13.2859 17.6286 13.9192 17.7191C14.5525 17.7191 15.2763 18.3524 16.4525 19.8905C17.6287 21.4286 19.2573 21.881 20.2525 21.0667C20.343 20.9762 20.4335 20.9762 20.524 20.8857C21.3383 20.2524 21.6097 19.981 23.1478 17.0857C23.5097 16.3619 24.7763 15.1857 26.4954 15.7286C26.9478 16.9048 26.9478 17.9 26.4954 18.7143Z" fill="#0E0F23"/>
<path fill-rule="evenodd" clip-rule="evenodd" d="M25.8621 18.3524C24.5954 20.1619 20.1621 19.2571 15.9097 16.2714C11.5668 13.2857 9.03351 9.48572 10.3002 7.67619C11.5668 5.86667 16.0002 6.77143 20.2526 9.75715C24.5049 12.7429 27.0383 16.5429 25.8621 18.3524ZM21.8811 15.6381C21.2478 16.5429 19.0764 16.0905 16.9049 14.6429C14.824 13.1952 13.5573 11.2952 14.1907 10.3905C14.824 9.48572 16.9954 9.9381 19.1668 11.3857C21.2478 12.8333 22.5145 14.7333 21.8811 15.6381Z" fill="white"/>
<path d="M9.30478 9.30477C9.30478 9.2143 9.2143 9.12382 9.12382 9.2143C9.03335 9.30477 8.94287 9.30477 8.94287 9.39525C9.03335 9.66668 9.12382 9.84763 9.12382 10.0286C9.12382 10.1191 9.2143 10.2095 9.30478 10.1191C9.39525 10.1191 9.48573 10.0286 9.39525 9.93811C9.39525 9.75715 9.39525 9.5762 9.30478 9.30477Z" fill="white"/>
<path d="M9.75727 10.7524C9.75727 10.6619 9.66679 10.5714 9.57632 10.6619C9.48584 10.7524 9.48584 10.7524 9.48584 10.8428C10.4811 13.1048 12.562 15.5476 15.2763 17.3571C15.3668 17.4476 15.4573 17.3571 15.5477 17.3571C15.6382 17.2667 15.5477 17.1762 15.5477 17.0857C12.743 15.2762 10.7525 12.9238 9.75727 10.7524Z" fill="white"/>
<path d="M20.7049 19.619C20.6144 19.619 20.5239 19.619 20.5239 19.7095C20.5239 19.8 20.5239 19.8905 20.6144 19.8905C20.8858 19.981 21.2477 20.0714 21.5192 20.1619C21.6096 20.1619 21.7001 20.1619 21.7001 20.0714C21.7001 19.981 21.7001 19.8905 21.6096 19.8905C21.3382 19.8 20.9763 19.7095 20.7049 19.619Z" fill="white"/>
<path d="M22.3333 19.981C22.2428 19.981 22.1523 20.0714 22.1523 20.1619C22.1523 20.2524 22.2428 20.3429 22.3333 20.3429C23.0571 20.4333 23.8714 20.5238 24.5047 20.4333C24.5952 20.4333 24.6857 20.3429 24.6857 20.2524C24.6857 20.1619 24.5952 20.0714 24.5047 20.0714C23.7809 20.1619 23.0571 20.0714 22.3333 19.981Z" fill="white"/>
</g>
<defs>
<linearGradient id="paint0_linear_274_3498" x1="2.85714" y1="8" x2="27.1429" y2="26.8571" gradientUnits="userSpaceOnUse">
<stop stop-color="#041F40"/>
<stop offset="1" stop-color="#5A0353"/>
</linearGradient>
<linearGradient id="paint1_linear_274_3498" x1="12.9639" y1="5.59009" x2="16.3012" y2="17.05" gradientUnits="userSpaceOnUse">
<stop stop-color="#03B8FF"/>
<stop offset="1" stop-color="#FA52A0"/>
</linearGradient>
<linearGradient id="paint2_linear_274_3498" x1="15.7124" y1="4.78963" x2="19.0498" y2="16.2496" gradientUnits="userSpaceOnUse">
<stop stop-color="#03B8FF"/>
<stop offset="1" stop-color="#FA52A0"/>
</linearGradient>
<linearGradient id="paint3_linear_274_3498" x1="10.2241" y1="6.3879" x2="13.5615" y2="17.8479" gradientUnits="userSpaceOnUse">
<stop stop-color="#03B8FF"/>
<stop offset="1" stop-color="#FA52A0"/>
</linearGradient>
<clipPath id="clip0_274_3498">
<rect width="21.7143" height="21.7143" fill="white" transform="translate(5.14307 5.14285)"/>
</clipPath>
</defs>
</svg>
