<svg width="6" height="97" viewBox="0 0 6 97" fill="none" xmlns="http://www.w3.org/2000/svg">
<path d="M1 4L5 1" stroke="#03B3FF" stroke-linecap="round"/>
<path d="M1 8L5 5" stroke="#03B3FF" stroke-linecap="round"/>
<path d="M1 12L5 9" stroke="#03B3FF" stroke-linecap="round"/>
<path d="M1 16L5 13" stroke="#03B3FF" stroke-linecap="round"/>
<path d="M1 20L5 17" stroke="#03B3FF" stroke-linecap="round"/>
<path d="M1 24L5 21" stroke="#03B3FF" stroke-linecap="round"/>
<path d="M1 28L5 25" stroke="#03B3FF" stroke-linecap="round"/>
<path d="M1 32L5 29" stroke="#03B3FF" stroke-linecap="round"/>
<path d="M1 36L5 33" stroke="#03B3FF" stroke-linecap="round"/>
<path d="M1 40L5 37" stroke="#03B3FF" stroke-linecap="round"/>
<path d="M1 44L5 41" stroke="#03B3FF" stroke-linecap="round"/>
<path d="M1 48L5 45" stroke="#03B3FF" stroke-linecap="round"/>
<path d="M1 52L5 49" stroke="#03B3FF" stroke-linecap="round"/>
<path d="M1 56L5 53" stroke="#03B3FF" stroke-linecap="round"/>
<path d="M1 60L5 57" stroke="#03B3FF" stroke-linecap="round"/>
<path d="M1 64L5 61" stroke="#03B3FF" stroke-linecap="round"/>
<path d="M1 68L5 65" stroke="#03B3FF" stroke-linecap="round"/>
<path d="M1 72L5 69" stroke="#03B3FF" stroke-linecap="round"/>
<path d="M1 76L5 73" stroke="#03B3FF" stroke-linecap="round"/>
<path d="M1 80L5 77" stroke="#03B3FF" stroke-linecap="round"/>
<path d="M1 84L5 81" stroke="#03B3FF" stroke-linecap="round"/>
<path d="M1 88L5 85" stroke="#03B3FF" stroke-linecap="round"/>
<path d="M1 92L5 89" stroke="#03B3FF" stroke-linecap="round"/>
<path d="M1 96L5 93" stroke="#03B3FF" stroke-linecap="round"/>
</svg>
