<svg width="64" height="64" viewBox="0 0 64 64" fill="none" xmlns="http://www.w3.org/2000/svg">
<path fill-rule="evenodd" clip-rule="evenodd" d="M49.6732 42.8673H14.3251V43.5395C14.3258 44.1383 14.5638 44.7124 14.9874 45.136C15.4109 45.5592 15.9851 45.7975 16.5838 45.7982H47.4161C48.0145 45.7972 48.5883 45.5588 49.0115 45.1353C49.4347 44.7121 49.6724 44.1379 49.6731 43.5396L49.6732 42.8673ZM15.857 41.0389H48.1447V19.1496C48.1444 18.8979 48.0443 18.6569 47.8661 18.4793C47.6883 18.3015 47.4469 18.2017 47.1956 18.2021H16.8049C16.2817 18.2024 15.8578 18.6263 15.8574 19.1496L15.857 41.0389ZM51.503 41.9535V43.5396C51.5017 44.623 51.0708 45.6616 50.3049 46.4279C49.5386 47.1939 48.5 47.625 47.4165 47.6264H16.5842C15.5008 47.6251 14.4621 47.1939 13.6958 46.4279C12.9299 45.6616 12.4987 44.6231 12.4974 43.5396V41.9531C12.4974 41.4485 12.9066 41.0389 13.4112 41.0389H14.0286V19.1496C14.0299 18.4142 14.3225 17.7097 14.8424 17.1898C15.3624 16.6699 16.0672 16.3773 16.8022 16.376H47.1937C47.9294 16.3766 48.6352 16.6689 49.1558 17.1888C49.6764 17.7084 49.97 18.4136 49.972 19.1496V41.0389H50.5866C50.8293 41.0386 51.0624 41.1347 51.2343 41.3062C51.4061 41.4778 51.5025 41.7105 51.5029 41.9532L51.503 41.9535ZM41.8919 24.5313V28.4187C41.8919 28.9236 41.4827 29.3329 40.9777 29.3329C40.4731 29.3329 40.0638 28.9236 40.0638 28.4187V26.7371L33.2683 33.5324C32.9112 33.8887 32.3328 33.8887 31.9754 33.5324L28.4461 30.0004L23.6676 34.7777C23.4974 34.9546 23.263 35.0553 23.0177 35.0576C22.7723 35.06 22.5363 34.9632 22.3627 34.79C22.1892 34.6165 22.0928 34.3805 22.0948 34.1351C22.0971 33.8898 22.1978 33.6554 22.3744 33.4852L27.7959 28.0607C28.1533 27.7049 28.7314 27.7049 29.0888 28.0607L32.621 31.5929L38.7706 25.444H37.0905C36.5855 25.444 36.1763 25.0347 36.1763 24.5301C36.1763 24.0251 36.5855 23.6162 37.0905 23.6162H40.9778C41.2201 23.6159 41.4528 23.7123 41.6244 23.8835C41.7956 24.0551 41.892 24.2878 41.892 24.5301L41.8919 24.5313Z" fill="#8287AA"/>
</svg>
