<svg width="718" height="680" viewBox="0 0 718 680" fill="none" xmlns="http://www.w3.org/2000/svg">
<rect width="718" height="680" rx="16" fill="#0E0F31"/>
<rect x="64" y="532" width="590" height="1" fill="#1A1E3F"/>
<path d="M137.32 555L141.674 545.13H142.682L147.106 555H145.902L144.67 552.186L145.188 552.48H139.154L139.714 552.186L138.51 555H137.32ZM142.164 546.46L139.896 551.78L139.56 551.528H144.768L144.516 551.78L142.192 546.46H142.164ZM148.595 555V545.13H152.613C153.649 545.13 154.447 545.382 155.007 545.886C155.567 546.381 155.847 547.071 155.847 547.958C155.847 548.826 155.567 549.517 155.007 550.03C154.447 550.534 153.649 550.786 152.613 550.786H149.757V555H148.595ZM149.757 549.82H152.501C153.22 549.82 153.761 549.657 154.125 549.33C154.499 549.003 154.685 548.546 154.685 547.958C154.685 547.361 154.499 546.899 154.125 546.572C153.761 546.245 153.22 546.082 152.501 546.082H149.757V549.82ZM160.096 555V550.394L160.348 551.178L156.26 545.13H157.604L160.852 550.044H160.558L163.792 545.13H165.08L161.006 551.178L161.258 550.394V555H160.096Z" fill="#919BB9"/>
<path d="M345.32 555L349.674 545.13H350.682L355.106 555H353.902L352.67 552.186L353.188 552.48H347.154L347.714 552.186L346.51 555H345.32ZM350.164 546.46L347.896 551.78L347.56 551.528H352.768L352.516 551.78L350.192 546.46H350.164ZM356.595 555V545.13H360.613C361.649 545.13 362.447 545.382 363.007 545.886C363.567 546.381 363.847 547.071 363.847 547.958C363.847 548.826 363.567 549.517 363.007 550.03C362.447 550.534 361.649 550.786 360.613 550.786H357.757V555H356.595ZM357.757 549.82H360.501C361.22 549.82 361.761 549.657 362.125 549.33C362.499 549.003 362.685 548.546 362.685 547.958C362.685 547.361 362.499 546.899 362.125 546.572C361.761 546.245 361.22 546.082 360.501 546.082H357.757V549.82ZM368.096 555V550.394L368.348 551.178L364.26 545.13H365.604L368.852 550.044H368.558L371.792 545.13H373.08L369.006 551.178L369.258 550.394V555H368.096Z" fill="#919BB9"/>
<path d="M553.32 555L557.674 545.13H558.682L563.106 555H561.902L560.67 552.186L561.188 552.48H555.154L555.714 552.186L554.51 555H553.32ZM558.164 546.46L555.896 551.78L555.56 551.528H560.768L560.516 551.78L558.192 546.46H558.164ZM564.595 555V545.13H568.613C569.649 545.13 570.447 545.382 571.007 545.886C571.567 546.381 571.847 547.071 571.847 547.958C571.847 548.826 571.567 549.517 571.007 550.03C570.447 550.534 569.649 550.786 568.613 550.786H565.757V555H564.595ZM565.757 549.82H568.501C569.22 549.82 569.761 549.657 570.125 549.33C570.499 549.003 570.685 548.546 570.685 547.958C570.685 547.361 570.499 546.899 570.125 546.572C569.761 546.245 569.22 546.082 568.501 546.082H565.757V549.82ZM576.096 555V550.394L576.348 551.178L572.26 545.13H573.604L576.852 550.044H576.558L579.792 545.13H581.08L577.006 551.178L577.258 550.394V555H576.096Z" fill="#919BB9"/>
<circle cx="52" cy="44" r="12" fill="url(#paint0_linear_120_1752)"/>
<path d="M76.192 50V44.736L76.48 45.632L71.808 38.72H73.344L77.056 44.336H76.72L80.416 38.72H81.888L77.232 45.632L77.52 44.736V50H76.192ZM82.9828 50V41.968H84.2788V50H82.9828ZM82.8228 40.144V38.688H84.4228V40.144H82.8228ZM90.3633 50.144C89.1046 50.144 88.1126 49.7813 87.3873 49.056C86.6619 48.32 86.2993 47.3013 86.2993 46C86.2993 45.1573 86.4593 44.4267 86.7793 43.808C87.0993 43.1787 87.5473 42.6933 88.1233 42.352C88.6993 42 89.3606 41.824 90.1073 41.824C90.8433 41.824 91.4619 41.9787 91.9633 42.288C92.4646 42.5973 92.8486 43.04 93.1153 43.616C93.3819 44.1813 93.5153 44.8533 93.5153 45.632V46.112H87.2913V45.296H92.6673L92.3953 45.504C92.3953 44.6507 92.2033 43.984 91.8193 43.504C91.4353 43.024 90.8646 42.784 90.1073 42.784C89.3073 42.784 88.6833 43.0667 88.2353 43.632C87.7873 44.1867 87.5633 44.9387 87.5633 45.888V46.032C87.5633 47.0347 87.8086 47.7973 88.2993 48.32C88.8006 48.832 89.4993 49.088 90.3953 49.088C90.8753 49.088 91.3233 49.0187 91.7393 48.88C92.1659 48.7307 92.5713 48.4907 92.9553 48.16L93.4033 49.072C93.0513 49.4133 92.6033 49.68 92.0593 49.872C91.5259 50.0533 90.9606 50.144 90.3633 50.144ZM95.4984 50V38.224H96.7944V50H95.4984ZM102.351 50.144C101.647 50.144 101.028 49.9787 100.495 49.648C99.9615 49.3067 99.5455 48.8267 99.2469 48.208C98.9589 47.5893 98.8149 46.848 98.8149 45.984C98.8149 45.1093 98.9589 44.3627 99.2469 43.744C99.5455 43.1253 99.9615 42.6507 100.495 42.32C101.028 41.9893 101.647 41.824 102.351 41.824C103.076 41.824 103.7 42.0053 104.223 42.368C104.756 42.7307 105.114 43.2213 105.295 43.84H105.103V38.224H106.399V50H105.119V48.08H105.295C105.124 48.72 104.772 49.2267 104.239 49.6C103.706 49.9627 103.076 50.144 102.351 50.144ZM102.623 49.088C103.38 49.088 103.988 48.8267 104.447 48.304C104.906 47.7707 105.135 46.9973 105.135 45.984C105.135 44.96 104.906 44.1867 104.447 43.664C103.988 43.1307 103.38 42.864 102.623 42.864C101.866 42.864 101.258 43.1307 100.799 43.664C100.351 44.1867 100.127 44.96 100.127 45.984C100.127 46.9973 100.351 47.7707 100.799 48.304C101.258 48.8267 101.866 49.088 102.623 49.088ZM115.221 50L112.245 41.968H113.621L116.101 49.04H115.685L118.245 41.968H119.365L121.877 49.04H121.477L123.973 41.968H125.285L122.293 50H121.045L118.453 42.816H119.093L116.485 50H115.221ZM126.983 50V41.968H128.279V50H126.983ZM126.823 40.144V38.688H128.423V40.144H126.823ZM133.643 50.144C132.854 50.144 132.251 49.92 131.835 49.472C131.419 49.0133 131.211 48.3253 131.211 47.408V42.976H129.643V41.968H131.211V39.776L132.507 39.408V41.968H134.811V42.976H132.507V47.264C132.507 47.904 132.614 48.3627 132.827 48.64C133.051 48.9067 133.382 49.04 133.819 49.04C134.022 49.04 134.203 49.024 134.363 48.992C134.523 48.9493 134.667 48.9013 134.795 48.848V49.936C134.646 50 134.465 50.048 134.251 50.08C134.049 50.1227 133.846 50.144 133.643 50.144ZM136.389 50V38.224H137.685V43.744H137.477C137.701 43.1147 138.074 42.64 138.597 42.32C139.13 41.9893 139.744 41.824 140.437 41.824C141.397 41.824 142.112 42.0853 142.581 42.608C143.05 43.12 143.285 43.8987 143.285 44.944V50H141.989V45.024C141.989 44.2773 141.84 43.7333 141.541 43.392C141.253 43.0507 140.784 42.88 140.133 42.88C139.386 42.88 138.789 43.1093 138.341 43.568C137.904 44.0267 137.685 44.6293 137.685 45.376V50H136.389ZM149.06 50.144C148.292 50.144 147.62 49.9787 147.044 49.648C146.479 49.3067 146.041 48.8267 145.732 48.208C145.423 47.5787 145.268 46.8373 145.268 45.984C145.268 45.12 145.423 44.3787 145.732 43.76C146.041 43.1413 146.479 42.6667 147.044 42.336C147.62 41.9947 148.292 41.824 149.06 41.824C149.839 41.824 150.511 41.9947 151.076 42.336C151.652 42.6667 152.095 43.1413 152.404 43.76C152.724 44.3787 152.884 45.12 152.884 45.984C152.884 46.8373 152.724 47.5787 152.404 48.208C152.095 48.8267 151.652 49.3067 151.076 49.648C150.511 49.9787 149.839 50.144 149.06 50.144ZM149.06 49.088C149.828 49.088 150.436 48.8267 150.884 48.304C151.332 47.7707 151.556 46.9973 151.556 45.984C151.556 44.96 151.327 44.1867 150.868 43.664C150.42 43.1307 149.817 42.864 149.06 42.864C148.303 42.864 147.7 43.1307 147.252 43.664C146.804 44.1867 146.58 44.96 146.58 45.984C146.58 46.9973 146.804 47.7707 147.252 48.304C147.7 48.8267 148.303 49.088 149.06 49.088ZM157.737 50.144C156.787 50.144 156.067 49.8827 155.577 49.36C155.097 48.8373 154.857 48.0373 154.857 46.96V41.968H156.153V46.928C156.153 47.664 156.302 48.208 156.601 48.56C156.899 48.9013 157.363 49.072 157.993 49.072C158.697 49.072 159.262 48.8427 159.689 48.384C160.115 47.9253 160.329 47.312 160.329 46.544V41.968H161.625V50H160.361V48.192H160.569C160.345 48.8107 159.982 49.2907 159.481 49.632C158.99 49.9733 158.409 50.144 157.737 50.144ZM166.987 50.144C166.198 50.144 165.595 49.92 165.179 49.472C164.763 49.0133 164.555 48.3253 164.555 47.408V42.976H162.987V41.968H164.555V39.776L165.851 39.408V41.968H168.155V42.976H165.851V47.264C165.851 47.904 165.958 48.3627 166.171 48.64C166.395 48.9067 166.726 49.04 167.163 49.04C167.366 49.04 167.547 49.024 167.707 48.992C167.867 48.9493 168.011 48.9013 168.139 48.848V49.936C167.99 50 167.808 50.048 167.595 50.08C167.392 50.1227 167.19 50.144 166.987 50.144ZM174.049 50V38.72H177.793C179.041 38.72 180.097 38.9387 180.961 39.376C181.825 39.8027 182.481 40.4373 182.929 41.28C183.377 42.112 183.601 43.136 183.601 44.352C183.601 45.5573 183.377 46.5813 182.929 47.424C182.481 48.2667 181.825 48.9067 180.961 49.344C180.097 49.7813 179.041 50 177.793 50H174.049ZM175.377 48.864H177.697C179.233 48.864 180.374 48.4907 181.121 47.744C181.867 46.9867 182.241 45.856 182.241 44.352C182.241 42.8373 181.867 41.7067 181.121 40.96C180.374 40.2133 179.233 39.84 177.697 39.84H175.377V48.864ZM189.426 50.144C188.167 50.144 187.175 49.7813 186.45 49.056C185.724 48.32 185.362 47.3013 185.362 46C185.362 45.1573 185.522 44.4267 185.842 43.808C186.162 43.1787 186.61 42.6933 187.186 42.352C187.762 42 188.423 41.824 189.17 41.824C189.906 41.824 190.524 41.9787 191.026 42.288C191.527 42.5973 191.911 43.04 192.178 43.616C192.444 44.1813 192.578 44.8533 192.578 45.632V46.112H186.354V45.296H191.73L191.458 45.504C191.458 44.6507 191.266 43.984 190.882 43.504C190.498 43.024 189.927 42.784 189.17 42.784C188.37 42.784 187.746 43.0667 187.298 43.632C186.85 44.1867 186.626 44.9387 186.626 45.888V46.032C186.626 47.0347 186.871 47.7973 187.362 48.32C187.863 48.832 188.562 49.088 189.458 49.088C189.938 49.088 190.386 49.0187 190.802 48.88C191.228 48.7307 191.634 48.4907 192.018 48.16L192.466 49.072C192.114 49.4133 191.666 49.68 191.122 49.872C190.588 50.0533 190.023 50.144 189.426 50.144ZM194.561 50V38.224H195.857V50H194.561ZM201.221 50.144C200.432 50.144 199.829 49.92 199.413 49.472C198.997 49.0133 198.789 48.3253 198.789 47.408V42.976H197.221V41.968H198.789V39.776L200.085 39.408V41.968H202.389V42.976H200.085V47.264C200.085 47.904 200.192 48.3627 200.405 48.64C200.629 48.9067 200.96 49.04 201.397 49.04C201.6 49.04 201.781 49.024 201.941 48.992C202.101 48.9493 202.245 48.9013 202.373 48.848V49.936C202.224 50 202.043 50.048 201.829 50.08C201.627 50.1227 201.424 50.144 201.221 50.144ZM207.023 50.144C206.308 50.144 205.684 49.9787 205.151 49.648C204.618 49.3067 204.202 48.8267 203.903 48.208C203.615 47.5893 203.471 46.848 203.471 45.984C203.471 45.1093 203.615 44.3627 203.903 43.744C204.202 43.1253 204.618 42.6507 205.151 42.32C205.684 41.9893 206.308 41.824 207.023 41.824C207.748 41.824 208.372 42.0107 208.895 42.384C209.428 42.7467 209.78 43.2427 209.951 43.872H209.759L209.935 41.968H211.183C211.151 42.2773 211.119 42.592 211.087 42.912C211.066 43.2213 211.055 43.5253 211.055 43.824V50H209.759V48.112H209.935C209.764 48.7413 209.412 49.2373 208.879 49.6C208.346 49.9627 207.727 50.144 207.023 50.144ZM207.279 49.088C208.047 49.088 208.655 48.8267 209.103 48.304C209.551 47.7707 209.775 46.9973 209.775 45.984C209.775 44.96 209.551 44.1867 209.103 43.664C208.655 43.1307 208.047 42.864 207.279 42.864C206.522 42.864 205.914 43.1307 205.455 43.664C205.007 44.1867 204.783 44.96 204.783 45.984C204.783 46.9973 205.007 47.7707 205.455 48.304C205.914 48.8267 206.522 49.088 207.279 49.088ZM217.893 50V38.72H219.045L223.573 48.944H223.109L227.637 38.72H228.789V50H227.573V40.432H228.053L223.781 50H222.901L218.613 40.432H219.093V50H217.893ZM234.763 50.144C233.995 50.144 233.323 49.9787 232.747 49.648C232.182 49.3067 231.744 48.8267 231.435 48.208C231.126 47.5787 230.971 46.8373 230.971 45.984C230.971 45.12 231.126 44.3787 231.435 43.76C231.744 43.1413 232.182 42.6667 232.747 42.336C233.323 41.9947 233.995 41.824 234.763 41.824C235.542 41.824 236.214 41.9947 236.779 42.336C237.355 42.6667 237.798 43.1413 238.107 43.76C238.427 44.3787 238.587 45.12 238.587 45.984C238.587 46.8373 238.427 47.5787 238.107 48.208C237.798 48.8267 237.355 49.3067 236.779 49.648C236.214 49.9787 235.542 50.144 234.763 50.144ZM234.763 49.088C235.531 49.088 236.139 48.8267 236.587 48.304C237.035 47.7707 237.259 46.9973 237.259 45.984C237.259 44.96 237.03 44.1867 236.571 43.664C236.123 43.1307 235.52 42.864 234.763 42.864C234.006 42.864 233.403 43.1307 232.955 43.664C232.507 44.1867 232.283 44.96 232.283 45.984C232.283 46.9973 232.507 47.7707 232.955 48.304C233.403 48.8267 234.006 49.088 234.763 49.088ZM240.608 50V43.824C240.608 43.5253 240.592 43.2213 240.56 42.912C240.538 42.592 240.512 42.2773 240.48 41.968H241.728L241.888 43.728H241.696C241.93 43.1093 242.304 42.64 242.816 42.32C243.338 41.9893 243.941 41.824 244.624 41.824C245.573 41.824 246.288 42.08 246.768 42.592C247.258 43.0933 247.504 43.888 247.504 44.976V50H246.208V45.056C246.208 44.2987 246.053 43.7493 245.744 43.408C245.445 43.056 244.976 42.88 244.336 42.88C243.589 42.88 242.997 43.1093 242.56 43.568C242.122 44.0267 241.904 44.64 241.904 45.408V50H240.608ZM253.551 50.144C252.292 50.144 251.3 49.7813 250.575 49.056C249.849 48.32 249.487 47.3013 249.487 46C249.487 45.1573 249.647 44.4267 249.967 43.808C250.287 43.1787 250.735 42.6933 251.311 42.352C251.887 42 252.548 41.824 253.295 41.824C254.031 41.824 254.649 41.9787 255.151 42.288C255.652 42.5973 256.036 43.04 256.303 43.616C256.569 44.1813 256.703 44.8533 256.703 45.632V46.112H250.479V45.296H255.855L255.583 45.504C255.583 44.6507 255.391 43.984 255.007 43.504C254.623 43.024 254.052 42.784 253.295 42.784C252.495 42.784 251.871 43.0667 251.423 43.632C250.975 44.1867 250.751 44.9387 250.751 45.888V46.032C250.751 47.0347 250.996 47.7973 251.487 48.32C251.988 48.832 252.687 49.088 253.583 49.088C254.063 49.088 254.511 49.0187 254.927 48.88C255.353 48.7307 255.759 48.4907 256.143 48.16L256.591 49.072C256.239 49.4133 255.791 49.68 255.247 49.872C254.713 50.0533 254.148 50.144 253.551 50.144ZM258.272 53.632L257.968 52.56C258.469 52.4427 258.885 52.304 259.216 52.144C259.557 51.9947 259.84 51.792 260.064 51.536C260.288 51.28 260.48 50.96 260.64 50.576L261.056 49.632L261.024 50.176L257.52 41.968H258.928L261.824 49.024H261.408L264.272 41.968H265.632L261.92 50.672C261.707 51.184 261.472 51.6107 261.216 51.952C260.96 52.304 260.683 52.5867 260.384 52.8C260.096 53.024 259.776 53.2 259.424 53.328C259.072 53.456 258.688 53.5573 258.272 53.632Z" fill="white"/>
<circle cx="350" cy="44" r="12" fill="url(#paint1_linear_120_1752)"/>
<path d="M374.192 50V44.736L374.48 45.632L369.808 38.72H371.344L375.056 44.336H374.72L378.416 38.72H379.888L375.232 45.632L375.52 44.736V50H374.192ZM380.983 50V41.968H382.279V50H380.983ZM380.823 40.144V38.688H382.423V40.144H380.823ZM388.363 50.144C387.105 50.144 386.113 49.7813 385.387 49.056C384.662 48.32 384.299 47.3013 384.299 46C384.299 45.1573 384.459 44.4267 384.779 43.808C385.099 43.1787 385.547 42.6933 386.123 42.352C386.699 42 387.361 41.824 388.107 41.824C388.843 41.824 389.462 41.9787 389.963 42.288C390.465 42.5973 390.849 43.04 391.115 43.616C391.382 44.1813 391.515 44.8533 391.515 45.632V46.112H385.291V45.296H390.667L390.395 45.504C390.395 44.6507 390.203 43.984 389.819 43.504C389.435 43.024 388.865 42.784 388.107 42.784C387.307 42.784 386.683 43.0667 386.235 43.632C385.787 44.1867 385.563 44.9387 385.563 45.888V46.032C385.563 47.0347 385.809 47.7973 386.299 48.32C386.801 48.832 387.499 49.088 388.395 49.088C388.875 49.088 389.323 49.0187 389.739 48.88C390.166 48.7307 390.571 48.4907 390.955 48.16L391.403 49.072C391.051 49.4133 390.603 49.68 390.059 49.872C389.526 50.0533 388.961 50.144 388.363 50.144ZM393.498 50V38.224H394.794V50H393.498ZM400.351 50.144C399.647 50.144 399.028 49.9787 398.495 49.648C397.962 49.3067 397.546 48.8267 397.247 48.208C396.959 47.5893 396.815 46.848 396.815 45.984C396.815 45.1093 396.959 44.3627 397.247 43.744C397.546 43.1253 397.962 42.6507 398.495 42.32C399.028 41.9893 399.647 41.824 400.351 41.824C401.076 41.824 401.7 42.0053 402.223 42.368C402.756 42.7307 403.114 43.2213 403.295 43.84H403.103V38.224H404.399V50H403.119V48.08H403.295C403.124 48.72 402.772 49.2267 402.239 49.6C401.706 49.9627 401.076 50.144 400.351 50.144ZM400.623 49.088C401.38 49.088 401.988 48.8267 402.447 48.304C402.906 47.7707 403.135 46.9973 403.135 45.984C403.135 44.96 402.906 44.1867 402.447 43.664C401.988 43.1307 401.38 42.864 400.623 42.864C399.866 42.864 399.258 43.1307 398.799 43.664C398.351 44.1867 398.127 44.96 398.127 45.984C398.127 46.9973 398.351 47.7707 398.799 48.304C399.258 48.8267 399.866 49.088 400.623 49.088ZM413.221 50L410.245 41.968H411.621L414.101 49.04H413.685L416.245 41.968H417.365L419.877 49.04H419.477L421.973 41.968H423.285L420.293 50H419.045L416.453 42.816H417.093L414.485 50H413.221ZM424.983 50V41.968H426.279V50H424.983ZM424.823 40.144V38.688H426.423V40.144H424.823ZM431.643 50.144C430.854 50.144 430.251 49.92 429.835 49.472C429.419 49.0133 429.211 48.3253 429.211 47.408V42.976H427.643V41.968H429.211V39.776L430.507 39.408V41.968H432.811V42.976H430.507V47.264C430.507 47.904 430.614 48.3627 430.827 48.64C431.051 48.9067 431.382 49.04 431.819 49.04C432.022 49.04 432.203 49.024 432.363 48.992C432.523 48.9493 432.667 48.9013 432.795 48.848V49.936C432.646 50 432.465 50.048 432.251 50.08C432.049 50.1227 431.846 50.144 431.643 50.144ZM438.705 50V38.72H442.449C443.697 38.72 444.753 38.9387 445.617 39.376C446.481 39.8027 447.137 40.4373 447.585 41.28C448.033 42.112 448.257 43.136 448.257 44.352C448.257 45.5573 448.033 46.5813 447.585 47.424C447.137 48.2667 446.481 48.9067 445.617 49.344C444.753 49.7813 443.697 50 442.449 50H438.705ZM440.033 48.864H442.353C443.889 48.864 445.03 48.4907 445.777 47.744C446.524 46.9867 446.897 45.856 446.897 44.352C446.897 42.8373 446.524 41.7067 445.777 40.96C445.03 40.2133 443.889 39.84 442.353 39.84H440.033V48.864ZM454.082 50.144C452.823 50.144 451.831 49.7813 451.106 49.056C450.381 48.32 450.018 47.3013 450.018 46C450.018 45.1573 450.178 44.4267 450.498 43.808C450.818 43.1787 451.266 42.6933 451.842 42.352C452.418 42 453.079 41.824 453.826 41.824C454.562 41.824 455.181 41.9787 455.682 42.288C456.183 42.5973 456.567 43.04 456.834 43.616C457.101 44.1813 457.234 44.8533 457.234 45.632V46.112H451.01V45.296H456.386L456.114 45.504C456.114 44.6507 455.922 43.984 455.538 43.504C455.154 43.024 454.583 42.784 453.826 42.784C453.026 42.784 452.402 43.0667 451.954 43.632C451.506 44.1867 451.282 44.9387 451.282 45.888V46.032C451.282 47.0347 451.527 47.7973 452.018 48.32C452.519 48.832 453.218 49.088 454.114 49.088C454.594 49.088 455.042 49.0187 455.458 48.88C455.885 48.7307 456.29 48.4907 456.674 48.16L457.122 49.072C456.77 49.4133 456.322 49.68 455.778 49.872C455.245 50.0533 454.679 50.144 454.082 50.144ZM459.217 50V38.224H460.513V50H459.217ZM465.878 50.144C465.088 50.144 464.486 49.92 464.07 49.472C463.654 49.0133 463.446 48.3253 463.446 47.408V42.976H461.878V41.968H463.446V39.776L464.742 39.408V41.968H467.046V42.976H464.742V47.264C464.742 47.904 464.848 48.3627 465.062 48.64C465.286 48.9067 465.616 49.04 466.054 49.04C466.256 49.04 466.438 49.024 466.598 48.992C466.758 48.9493 466.902 48.9013 467.03 48.848V49.936C466.88 50 466.699 50.048 466.486 50.08C466.283 50.1227 466.08 50.144 465.878 50.144ZM471.679 50.144C470.965 50.144 470.341 49.9787 469.807 49.648C469.274 49.3067 468.858 48.8267 468.559 48.208C468.271 47.5893 468.127 46.848 468.127 45.984C468.127 45.1093 468.271 44.3627 468.559 43.744C468.858 43.1253 469.274 42.6507 469.807 42.32C470.341 41.9893 470.965 41.824 471.679 41.824C472.405 41.824 473.029 42.0107 473.551 42.384C474.085 42.7467 474.437 43.2427 474.607 43.872H474.415L474.591 41.968H475.839C475.807 42.2773 475.775 42.592 475.743 42.912C475.722 43.2213 475.711 43.5253 475.711 43.824V50H474.415V48.112H474.591C474.421 48.7413 474.069 49.2373 473.535 49.6C473.002 49.9627 472.383 50.144 471.679 50.144ZM471.935 49.088C472.703 49.088 473.311 48.8267 473.759 48.304C474.207 47.7707 474.431 46.9973 474.431 45.984C474.431 44.96 474.207 44.1867 473.759 43.664C473.311 43.1307 472.703 42.864 471.935 42.864C471.178 42.864 470.57 43.1307 470.111 43.664C469.663 44.1867 469.439 44.96 469.439 45.984C469.439 46.9973 469.663 47.7707 470.111 48.304C470.57 48.8267 471.178 49.088 471.935 49.088ZM482.549 50V38.72H483.701L488.229 48.944H487.765L492.293 38.72H493.445V50H492.229V40.432H492.709L488.437 50H487.557L483.269 40.432H483.749V50H482.549ZM499.419 50.144C498.651 50.144 497.979 49.9787 497.403 49.648C496.838 49.3067 496.401 48.8267 496.091 48.208C495.782 47.5787 495.627 46.8373 495.627 45.984C495.627 45.12 495.782 44.3787 496.091 43.76C496.401 43.1413 496.838 42.6667 497.403 42.336C497.979 41.9947 498.651 41.824 499.419 41.824C500.198 41.824 500.87 41.9947 501.435 42.336C502.011 42.6667 502.454 43.1413 502.763 43.76C503.083 44.3787 503.243 45.12 503.243 45.984C503.243 46.8373 503.083 47.5787 502.763 48.208C502.454 48.8267 502.011 49.3067 501.435 49.648C500.87 49.9787 500.198 50.144 499.419 50.144ZM499.419 49.088C500.187 49.088 500.795 48.8267 501.243 48.304C501.691 47.7707 501.915 46.9973 501.915 45.984C501.915 44.96 501.686 44.1867 501.227 43.664C500.779 43.1307 500.177 42.864 499.419 42.864C498.662 42.864 498.059 43.1307 497.611 43.664C497.163 44.1867 496.939 44.96 496.939 45.984C496.939 46.9973 497.163 47.7707 497.611 48.304C498.059 48.8267 498.662 49.088 499.419 49.088ZM505.264 50V43.824C505.264 43.5253 505.248 43.2213 505.216 42.912C505.195 42.592 505.168 42.2773 505.136 41.968H506.384L506.544 43.728H506.352C506.587 43.1093 506.96 42.64 507.472 42.32C507.995 41.9893 508.597 41.824 509.28 41.824C510.229 41.824 510.944 42.08 511.424 42.592C511.915 43.0933 512.16 43.888 512.16 44.976V50H510.864V45.056C510.864 44.2987 510.709 43.7493 510.4 43.408C510.101 43.056 509.632 42.88 508.992 42.88C508.245 42.88 507.653 43.1093 507.216 43.568C506.779 44.0267 506.56 44.64 506.56 45.408V50H505.264ZM518.207 50.144C516.948 50.144 515.956 49.7813 515.231 49.056C514.506 48.32 514.143 47.3013 514.143 46C514.143 45.1573 514.303 44.4267 514.623 43.808C514.943 43.1787 515.391 42.6933 515.967 42.352C516.543 42 517.204 41.824 517.951 41.824C518.687 41.824 519.306 41.9787 519.807 42.288C520.308 42.5973 520.692 43.04 520.959 43.616C521.226 44.1813 521.359 44.8533 521.359 45.632V46.112H515.135V45.296H520.511L520.239 45.504C520.239 44.6507 520.047 43.984 519.663 43.504C519.279 43.024 518.708 42.784 517.951 42.784C517.151 42.784 516.527 43.0667 516.079 43.632C515.631 44.1867 515.407 44.9387 515.407 45.888V46.032C515.407 47.0347 515.652 47.7973 516.143 48.32C516.644 48.832 517.343 49.088 518.239 49.088C518.719 49.088 519.167 49.0187 519.583 48.88C520.01 48.7307 520.415 48.4907 520.799 48.16L521.247 49.072C520.895 49.4133 520.447 49.68 519.903 49.872C519.37 50.0533 518.804 50.144 518.207 50.144ZM522.928 53.632L522.624 52.56C523.126 52.4427 523.542 52.304 523.872 52.144C524.214 51.9947 524.496 51.792 524.72 51.536C524.944 51.28 525.136 50.96 525.296 50.576L525.712 49.632L525.68 50.176L522.176 41.968H523.584L526.48 49.024H526.064L528.928 41.968H530.288L526.576 50.672C526.363 51.184 526.128 51.6107 525.872 51.952C525.616 52.304 525.339 52.5867 525.04 52.8C524.752 53.024 524.432 53.2 524.08 53.328C523.728 53.456 523.344 53.5573 522.928 53.632Z" fill="white"/>
<path d="M120 272C120 265.373 125.373 260 132 260H134C140.627 260 146 265.373 146 272V532H120V272Z" fill="url(#paint2_linear_120_1752)"/>
<path d="M156 208C156 201.373 161.373 196 168 196H170C176.627 196 182 201.373 182 208V532H156V208Z" fill="url(#paint3_linear_120_1752)"/>
<path d="M536 328C536 321.373 541.373 316 548 316H550C556.627 316 562 321.373 562 328V532H536V328Z" fill="url(#paint4_linear_120_1752)"/>
<path d="M572 240C572 233.373 577.373 228 584 228H586C592.627 228 598 233.373 598 240V532H572V240Z" fill="url(#paint5_linear_120_1752)"/>
<path d="M328 200C328 193.373 333.373 188 340 188H342C348.627 188 354 193.373 354 200V532H328V200Z" fill="url(#paint6_linear_120_1752)"/>
<path d="M364 120C364 113.373 369.373 108 376 108H378C384.627 108 390 113.373 390 120V532H364V120Z" fill="url(#paint7_linear_120_1752)"/>
<path d="M115.186 605V592.31H117.058V603.398H123.286V605H115.186ZM125.136 605V595.928H126.954V605H125.136ZM124.992 594.038V592.148H127.098V594.038H124.992ZM136.296 608.888V602.984H136.494C136.302 603.656 135.906 604.19 135.306 604.586C134.718 604.97 134.04 605.162 133.272 605.162C132.468 605.162 131.766 604.976 131.166 604.604C130.566 604.232 130.098 603.692 129.762 602.984C129.438 602.276 129.276 601.436 129.276 600.464C129.276 599.48 129.438 598.64 129.762 597.944C130.098 597.248 130.566 596.714 131.166 596.342C131.766 595.958 132.468 595.766 133.272 595.766C134.064 595.766 134.754 595.964 135.342 596.36C135.93 596.756 136.32 597.296 136.512 597.98H136.314L136.494 595.928H138.258C138.222 596.3 138.186 596.672 138.15 597.044C138.126 597.404 138.114 597.758 138.114 598.106V608.888H136.296ZM133.722 603.74C134.502 603.74 135.126 603.464 135.594 602.912C136.074 602.36 136.314 601.544 136.314 600.464C136.314 599.384 136.074 598.574 135.594 598.034C135.126 597.482 134.502 597.206 133.722 597.206C132.93 597.206 132.294 597.482 131.814 598.034C131.346 598.574 131.112 599.384 131.112 600.464C131.112 601.544 131.346 602.36 131.814 602.912C132.282 603.464 132.918 603.74 133.722 603.74ZM144.169 605.162C143.077 605.162 142.255 604.868 141.703 604.28C141.163 603.68 140.893 602.762 140.893 601.526V595.928H142.711V601.49C142.711 602.246 142.867 602.804 143.179 603.164C143.491 603.524 143.965 603.704 144.601 603.704C145.321 603.704 145.903 603.464 146.347 602.984C146.791 602.504 147.013 601.868 147.013 601.076V595.928H148.831V605H147.067V603.056H147.301C147.049 603.728 146.647 604.25 146.095 604.622C145.543 604.982 144.901 605.162 144.169 605.162ZM151.674 605V595.928H153.492V605H151.674ZM151.53 594.038V592.148H153.636V594.038H151.53ZM159.81 605.162C159.018 605.162 158.316 604.976 157.704 604.604C157.104 604.232 156.636 603.692 156.3 602.984C155.976 602.276 155.814 601.436 155.814 600.464C155.814 599.48 155.976 598.64 156.3 597.944C156.636 597.248 157.104 596.714 157.704 596.342C158.316 595.958 159.018 595.766 159.81 595.766C160.59 595.766 161.274 595.964 161.862 596.36C162.462 596.744 162.858 597.272 163.05 597.944H162.834V591.752H164.652V605H162.852V602.948H163.068C162.864 603.632 162.468 604.172 161.88 604.568C161.292 604.964 160.602 605.162 159.81 605.162ZM160.26 603.74C161.04 603.74 161.67 603.464 162.15 602.912C162.63 602.36 162.87 601.544 162.87 600.464C162.87 599.384 162.63 598.574 162.15 598.034C161.67 597.482 161.04 597.206 160.26 597.206C159.468 597.206 158.832 597.482 158.352 598.034C157.884 598.574 157.65 599.384 157.65 600.464C157.65 601.544 157.884 602.36 158.352 602.912C158.832 603.464 159.468 603.74 160.26 603.74ZM167.485 605V595.928H169.303V605H167.485ZM167.341 594.038V592.148H169.447V594.038H167.341ZM175.675 605.162C174.691 605.162 173.947 604.898 173.443 604.37C172.939 603.83 172.687 603.026 172.687 601.958V597.332H170.923V595.928H172.687V593.534L174.505 593.048V595.928H177.025V597.332H174.505V601.796C174.505 602.468 174.625 602.948 174.865 603.236C175.105 603.524 175.453 603.668 175.909 603.668C176.137 603.668 176.335 603.65 176.503 603.614C176.683 603.566 176.845 603.512 176.989 603.452V604.928C176.809 605 176.599 605.054 176.359 605.09C176.119 605.138 175.891 605.162 175.675 605.162ZM178.72 609.086L178.288 607.61C178.852 607.49 179.32 607.346 179.692 607.178C180.076 607.01 180.394 606.788 180.646 606.512C180.898 606.248 181.114 605.906 181.294 605.486L181.744 604.424L181.708 605.162L177.766 595.928H179.71L182.77 603.488H182.284L185.344 595.928H187.216L183.058 605.648C182.794 606.248 182.512 606.752 182.212 607.16C181.912 607.568 181.588 607.898 181.24 608.15C180.892 608.402 180.508 608.6 180.088 608.744C179.668 608.888 179.212 609.002 178.72 609.086ZM112.593 633V620.31H117.975C119.331 620.31 120.369 620.64 121.089 621.3C121.821 621.948 122.187 622.848 122.187 624C122.187 625.152 121.821 626.058 121.089 626.718C120.369 627.378 119.331 627.708 117.975 627.708H114.465V633H112.593ZM114.465 626.214H117.777C118.629 626.214 119.271 626.022 119.703 625.638C120.135 625.254 120.351 624.708 120.351 624C120.351 623.304 120.135 622.764 119.703 622.38C119.271 621.996 118.629 621.804 117.777 621.804H114.465V626.214ZM124.247 633V626.178C124.247 625.806 124.235 625.434 124.211 625.062C124.199 624.678 124.175 624.3 124.139 623.928H125.903L126.101 626.268H125.813C125.933 625.704 126.137 625.236 126.425 624.864C126.713 624.492 127.061 624.216 127.469 624.036C127.889 623.856 128.327 623.766 128.783 623.766C128.975 623.766 129.137 623.778 129.269 623.802C129.401 623.814 129.533 623.838 129.665 623.874L129.647 625.494C129.443 625.41 129.263 625.362 129.107 625.35C128.963 625.326 128.783 625.314 128.567 625.314C128.039 625.314 127.589 625.434 127.217 625.674C126.845 625.902 126.563 626.214 126.371 626.61C126.179 627.006 126.083 627.432 126.083 627.888V633H124.247ZM135.013 633.162C134.113 633.162 133.333 632.976 132.673 632.604C132.013 632.22 131.503 631.68 131.143 630.984C130.783 630.276 130.603 629.436 130.603 628.464C130.603 627.492 130.783 626.658 131.143 625.962C131.503 625.254 132.013 624.714 132.673 624.342C133.333 623.958 134.113 623.766 135.013 623.766C135.913 623.766 136.693 623.958 137.353 624.342C138.025 624.714 138.541 625.254 138.901 625.962C139.273 626.658 139.459 627.492 139.459 628.464C139.459 629.436 139.273 630.276 138.901 630.984C138.541 631.68 138.025 632.22 137.353 632.604C136.693 632.976 135.913 633.162 135.013 633.162ZM135.013 631.74C135.805 631.74 136.435 631.464 136.903 630.912C137.371 630.36 137.605 629.544 137.605 628.464C137.605 627.384 137.371 626.574 136.903 626.034C136.435 625.482 135.805 625.206 135.013 625.206C134.233 625.206 133.609 625.482 133.141 626.034C132.673 626.574 132.439 627.384 132.439 628.464C132.439 629.544 132.667 630.36 133.123 630.912C133.591 631.464 134.221 631.74 135.013 631.74ZM144.27 633L140.382 623.928H142.326L145.386 631.506H144.864L147.978 623.928H149.832L145.926 633H144.27ZM151.454 633V623.928H153.272V633H151.454ZM151.31 622.038V620.148H153.416V622.038H151.31ZM159.23 633.162C158.474 633.162 157.778 633.066 157.142 632.874C156.506 632.682 155.978 632.412 155.558 632.064L156.116 630.822C156.56 631.158 157.052 631.41 157.592 631.578C158.132 631.746 158.684 631.83 159.248 631.83C159.908 631.83 160.406 631.716 160.742 631.488C161.078 631.248 161.246 630.924 161.246 630.516C161.246 630.204 161.138 629.952 160.922 629.76C160.718 629.568 160.376 629.424 159.896 629.328L158.168 628.986C157.4 628.818 156.818 628.53 156.422 628.122C156.026 627.714 155.828 627.192 155.828 626.556C155.828 626.016 155.972 625.536 156.26 625.116C156.56 624.696 156.98 624.366 157.52 624.126C158.072 623.886 158.714 623.766 159.446 623.766C160.118 623.766 160.742 623.862 161.318 624.054C161.894 624.246 162.374 624.522 162.758 624.882L162.182 626.088C161.81 625.776 161.39 625.536 160.922 625.368C160.454 625.188 159.98 625.098 159.5 625.098C158.828 625.098 158.33 625.224 158.006 625.476C157.682 625.728 157.52 626.058 157.52 626.466C157.52 626.778 157.616 627.036 157.808 627.24C158.012 627.432 158.33 627.582 158.762 627.69L160.49 628.032C161.306 628.2 161.918 628.476 162.326 628.86C162.734 629.244 162.938 629.76 162.938 630.408C162.938 630.972 162.782 631.464 162.47 631.884C162.158 632.304 161.726 632.622 161.174 632.838C160.622 633.054 159.974 633.162 159.23 633.162ZM165.261 633V623.928H167.079V633H165.261ZM165.117 622.038V620.148H167.223V622.038H165.117ZM173.812 633.162C172.912 633.162 172.132 632.976 171.472 632.604C170.812 632.22 170.302 631.68 169.942 630.984C169.582 630.276 169.402 629.436 169.402 628.464C169.402 627.492 169.582 626.658 169.942 625.962C170.302 625.254 170.812 624.714 171.472 624.342C172.132 623.958 172.912 623.766 173.812 623.766C174.712 623.766 175.492 623.958 176.152 624.342C176.824 624.714 177.34 625.254 177.7 625.962C178.072 626.658 178.258 627.492 178.258 628.464C178.258 629.436 178.072 630.276 177.7 630.984C177.34 631.68 176.824 632.22 176.152 632.604C175.492 632.976 174.712 633.162 173.812 633.162ZM173.812 631.74C174.604 631.74 175.234 631.464 175.702 630.912C176.17 630.36 176.404 629.544 176.404 628.464C176.404 627.384 176.17 626.574 175.702 626.034C175.234 625.482 174.604 625.206 173.812 625.206C173.032 625.206 172.408 625.482 171.94 626.034C171.472 626.574 171.238 627.384 171.238 628.464C171.238 629.544 171.466 630.36 171.922 630.912C172.39 631.464 173.02 631.74 173.812 631.74ZM180.563 633V626.106C180.563 625.758 180.545 625.404 180.509 625.044C180.485 624.672 180.455 624.3 180.419 623.928H182.183L182.345 625.836H182.129C182.405 625.164 182.831 624.654 183.407 624.306C183.983 623.946 184.649 623.766 185.405 623.766C186.473 623.766 187.277 624.06 187.817 624.648C188.369 625.236 188.645 626.148 188.645 627.384V633H186.827V627.492C186.827 626.688 186.665 626.112 186.341 625.764C186.029 625.404 185.549 625.224 184.901 625.224C184.133 625.224 183.521 625.464 183.065 625.944C182.609 626.412 182.381 627.048 182.381 627.852V633H180.563Z" fill="white"/>
<path d="M325.713 619V606.31H327.585V617.398H333.813V619H325.713ZM339.769 619.162C338.305 619.162 337.153 618.748 336.313 617.92C335.473 617.092 335.053 615.946 335.053 614.482C335.053 613.534 335.233 612.706 335.593 611.998C335.965 611.29 336.475 610.744 337.123 610.36C337.783 609.964 338.545 609.766 339.409 609.766C340.261 609.766 340.975 609.946 341.551 610.306C342.127 610.666 342.565 611.176 342.865 611.836C343.165 612.484 343.315 613.252 343.315 614.14V614.716H336.475V613.672H342.073L341.767 613.906C341.767 613.006 341.563 612.31 341.155 611.818C340.759 611.314 340.183 611.062 339.427 611.062C338.587 611.062 337.939 611.356 337.483 611.944C337.027 612.52 336.799 613.318 336.799 614.338V614.518C336.799 615.586 337.057 616.39 337.573 616.93C338.101 617.47 338.845 617.74 339.805 617.74C340.333 617.74 340.825 617.668 341.281 617.524C341.749 617.368 342.193 617.116 342.613 616.768L343.207 618.01C342.787 618.382 342.277 618.67 341.677 618.874C341.077 619.066 340.441 619.162 339.769 619.162ZM345.581 619V612.106C345.581 611.758 345.563 611.404 345.527 611.044C345.503 610.672 345.473 610.3 345.437 609.928H347.201L347.363 611.836H347.147C347.423 611.164 347.849 610.654 348.425 610.306C349.001 609.946 349.667 609.766 350.423 609.766C351.491 609.766 352.295 610.06 352.835 610.648C353.387 611.236 353.663 612.148 353.663 613.384V619H351.845V613.492C351.845 612.688 351.683 612.112 351.359 611.764C351.047 611.404 350.567 611.224 349.919 611.224C349.151 611.224 348.539 611.464 348.083 611.944C347.627 612.412 347.399 613.048 347.399 613.852V619H345.581ZM359.905 619.162C359.113 619.162 358.411 618.976 357.799 618.604C357.199 618.232 356.731 617.692 356.395 616.984C356.071 616.276 355.909 615.436 355.909 614.464C355.909 613.48 356.071 612.64 356.395 611.944C356.731 611.248 357.199 610.714 357.799 610.342C358.411 609.958 359.113 609.766 359.905 609.766C360.685 609.766 361.369 609.964 361.957 610.36C362.557 610.744 362.953 611.272 363.145 611.944H362.929V605.752H364.747V619H362.947V616.948H363.163C362.959 617.632 362.563 618.172 361.975 618.568C361.387 618.964 360.697 619.162 359.905 619.162ZM360.355 617.74C361.135 617.74 361.765 617.464 362.245 616.912C362.725 616.36 362.965 615.544 362.965 614.464C362.965 613.384 362.725 612.574 362.245 612.034C361.765 611.482 361.135 611.206 360.355 611.206C359.563 611.206 358.927 611.482 358.447 612.034C357.979 612.574 357.745 613.384 357.745 614.464C357.745 615.544 357.979 616.36 358.447 616.912C358.927 617.464 359.563 617.74 360.355 617.74ZM367.579 619V609.928H369.397V619H367.579ZM367.435 608.038V606.148H369.541V608.038H367.435ZM372.242 619V612.106C372.242 611.758 372.224 611.404 372.188 611.044C372.164 610.672 372.134 610.3 372.098 609.928H373.862L374.024 611.836H373.808C374.084 611.164 374.51 610.654 375.086 610.306C375.662 609.946 376.328 609.766 377.084 609.766C378.152 609.766 378.956 610.06 379.496 610.648C380.048 611.236 380.324 612.148 380.324 613.384V619H378.506V613.492C378.506 612.688 378.344 612.112 378.02 611.764C377.708 611.404 377.228 611.224 376.58 611.224C375.812 611.224 375.2 611.464 374.744 611.944C374.288 612.412 374.06 613.048 374.06 613.852V619H372.242ZM387.178 623.032C386.362 623.032 385.618 622.936 384.946 622.744C384.286 622.552 383.692 622.264 383.164 621.88L383.614 620.548C383.986 620.8 384.352 620.998 384.712 621.142C385.072 621.298 385.45 621.412 385.846 621.484C386.242 621.556 386.65 621.592 387.07 621.592C387.934 621.592 388.582 621.37 389.014 620.926C389.458 620.494 389.68 619.864 389.68 619.036V616.606H389.86C389.668 617.278 389.272 617.812 388.672 618.208C388.084 618.592 387.4 618.784 386.62 618.784C385.792 618.784 385.072 618.604 384.46 618.244C383.86 617.872 383.392 617.35 383.056 616.678C382.732 615.994 382.57 615.19 382.57 614.266C382.57 613.342 382.732 612.544 383.056 611.872C383.392 611.2 383.86 610.684 384.46 610.324C385.072 609.952 385.792 609.766 386.62 609.766C387.412 609.766 388.096 609.964 388.672 610.36C389.26 610.744 389.65 611.272 389.842 611.944L389.68 611.8L389.842 609.928H391.606C391.558 610.3 391.522 610.672 391.498 611.044C391.474 611.404 391.462 611.758 391.462 612.106V618.82C391.462 620.188 391.096 621.232 390.364 621.952C389.644 622.672 388.582 623.032 387.178 623.032ZM387.052 617.362C387.844 617.362 388.474 617.092 388.942 616.552C389.422 616.012 389.662 615.25 389.662 614.266C389.662 613.282 389.422 612.526 388.942 611.998C388.474 611.47 387.844 611.206 387.052 611.206C386.236 611.206 385.588 611.47 385.108 611.998C384.64 612.526 384.406 613.282 384.406 614.266C384.406 615.25 384.64 616.012 385.108 616.552C385.588 617.092 386.236 617.362 387.052 617.362Z" fill="white"/>
<path d="M538.938 619.162C537.918 619.162 536.994 619.036 536.166 618.784C535.338 618.52 534.618 618.148 534.006 617.668L534.636 616.192C535.044 616.504 535.464 616.762 535.896 616.966C536.34 617.17 536.808 617.326 537.3 617.434C537.804 617.53 538.35 617.578 538.938 617.578C539.946 617.578 540.684 617.398 541.152 617.038C541.632 616.678 541.872 616.204 541.872 615.616C541.872 615.112 541.704 614.722 541.368 614.446C541.044 614.17 540.468 613.948 539.64 613.78L537.678 613.384C536.514 613.144 535.644 612.754 535.068 612.214C534.504 611.662 534.222 610.912 534.222 609.964C534.222 609.196 534.426 608.524 534.834 607.948C535.242 607.372 535.806 606.928 536.526 606.616C537.258 606.304 538.11 606.148 539.082 606.148C539.982 606.148 540.81 606.28 541.566 606.544C542.322 606.796 542.958 607.174 543.474 607.678L542.862 609.1C542.322 608.632 541.746 608.29 541.134 608.074C540.522 607.846 539.826 607.732 539.046 607.732C538.122 607.732 537.396 607.924 536.868 608.308C536.352 608.692 536.094 609.214 536.094 609.874C536.094 610.402 536.256 610.816 536.58 611.116C536.916 611.416 537.468 611.644 538.236 611.8L540.198 612.178C541.41 612.43 542.304 612.82 542.88 613.348C543.456 613.864 543.744 614.578 543.744 615.49C543.744 616.222 543.546 616.864 543.15 617.416C542.766 617.968 542.214 618.4 541.494 618.712C540.774 619.012 539.922 619.162 538.938 619.162ZM549.538 619.162C548.554 619.162 547.81 618.898 547.306 618.37C546.802 617.83 546.55 617.026 546.55 615.958V611.332H544.786V609.928H546.55V607.534L548.368 607.048V609.928H550.888V611.332H548.368V615.796C548.368 616.468 548.488 616.948 548.728 617.236C548.968 617.524 549.316 617.668 549.772 617.668C550 617.668 550.198 617.65 550.366 617.614C550.546 617.566 550.708 617.512 550.852 617.452V618.928C550.672 619 550.462 619.054 550.222 619.09C549.982 619.138 549.754 619.162 549.538 619.162ZM556.203 619.162C555.399 619.162 554.697 618.976 554.097 618.604C553.497 618.232 553.029 617.692 552.693 616.984C552.369 616.276 552.207 615.436 552.207 614.464C552.207 613.48 552.369 612.64 552.693 611.944C553.029 611.248 553.497 610.714 554.097 610.342C554.697 609.958 555.399 609.766 556.203 609.766C556.995 609.766 557.685 609.964 558.273 610.36C558.861 610.756 559.251 611.296 559.443 611.98H559.245L559.425 609.928H561.189C561.153 610.3 561.117 610.672 561.081 611.044C561.057 611.404 561.045 611.758 561.045 612.106V619H559.227V616.984H559.425C559.233 617.656 558.837 618.19 558.237 618.586C557.649 618.97 556.971 619.162 556.203 619.162ZM556.653 617.74C557.433 617.74 558.057 617.464 558.525 616.912C559.005 616.36 559.245 615.544 559.245 614.464C559.245 613.384 559.005 612.574 558.525 612.034C558.057 611.482 557.433 611.206 556.653 611.206C555.861 611.206 555.225 611.482 554.745 612.034C554.277 612.574 554.043 613.384 554.043 614.464C554.043 615.544 554.277 616.36 554.745 616.912C555.213 617.464 555.849 617.74 556.653 617.74ZM563.878 619V605.752H565.696V613.888H565.732L569.692 609.928H571.942L567.154 614.698L567.172 613.888L572.338 619H570.034L565.732 614.842H565.696V619H563.878ZM573.638 619V609.928H575.456V619H573.638ZM573.494 608.038V606.148H575.6V608.038H573.494ZM578.3 619V612.106C578.3 611.758 578.282 611.404 578.246 611.044C578.222 610.672 578.192 610.3 578.156 609.928H579.92L580.082 611.836H579.866C580.142 611.164 580.568 610.654 581.144 610.306C581.72 609.946 582.386 609.766 583.142 609.766C584.21 609.766 585.014 610.06 585.554 610.648C586.106 611.236 586.382 612.148 586.382 613.384V619H584.564V613.492C584.564 612.688 584.402 612.112 584.078 611.764C583.766 611.404 583.286 611.224 582.638 611.224C581.87 611.224 581.258 611.464 580.802 611.944C580.346 612.412 580.118 613.048 580.118 613.852V619H578.3ZM593.236 623.032C592.42 623.032 591.676 622.936 591.004 622.744C590.344 622.552 589.75 622.264 589.222 621.88L589.672 620.548C590.044 620.8 590.41 620.998 590.77 621.142C591.13 621.298 591.508 621.412 591.904 621.484C592.3 621.556 592.708 621.592 593.128 621.592C593.992 621.592 594.64 621.37 595.072 620.926C595.516 620.494 595.738 619.864 595.738 619.036V616.606H595.918C595.726 617.278 595.33 617.812 594.73 618.208C594.142 618.592 593.458 618.784 592.678 618.784C591.85 618.784 591.13 618.604 590.518 618.244C589.918 617.872 589.45 617.35 589.114 616.678C588.79 615.994 588.628 615.19 588.628 614.266C588.628 613.342 588.79 612.544 589.114 611.872C589.45 611.2 589.918 610.684 590.518 610.324C591.13 609.952 591.85 609.766 592.678 609.766C593.47 609.766 594.154 609.964 594.73 610.36C595.318 610.744 595.708 611.272 595.9 611.944L595.738 611.8L595.9 609.928H597.664C597.616 610.3 597.58 610.672 597.556 611.044C597.532 611.404 597.52 611.758 597.52 612.106V618.82C597.52 620.188 597.154 621.232 596.422 621.952C595.702 622.672 594.64 623.032 593.236 623.032ZM593.11 617.362C593.902 617.362 594.532 617.092 595 616.552C595.48 616.012 595.72 615.25 595.72 614.266C595.72 613.282 595.48 612.526 595 611.998C594.532 611.47 593.902 611.206 593.11 611.206C592.294 611.206 591.646 611.47 591.166 611.998C590.698 612.526 590.464 613.282 590.464 614.266C590.464 615.25 590.698 616.012 591.166 616.552C591.646 617.092 592.294 617.362 593.11 617.362Z" fill="white"/>
<defs>
<linearGradient id="paint0_linear_120_1752" x1="46.2897" y1="62.8571" x2="67.2252" y2="49.2667" gradientUnits="userSpaceOnUse">
<stop stop-color="#9D0808"/>
<stop offset="1" stop-color="#F1511F"/>
</linearGradient>
<linearGradient id="paint1_linear_120_1752" x1="338" y1="56" x2="364.98" y2="51.9758" gradientUnits="userSpaceOnUse">
<stop stop-color="#403CE6"/>
<stop offset="1" stop-color="#03B3FF"/>
</linearGradient>
<linearGradient id="paint2_linear_120_1752" x1="120" y1="532" x2="128.524" y2="259.86" gradientUnits="userSpaceOnUse">
<stop stop-color="#BD2121"/>
<stop offset="1" stop-color="#D55831"/>
</linearGradient>
<linearGradient id="paint3_linear_120_1752" x1="156" y1="532" x2="185.874" y2="531.655" gradientUnits="userSpaceOnUse">
<stop stop-color="#403CE6"/>
<stop offset="1" stop-color="#03B3FF"/>
</linearGradient>
<linearGradient id="paint4_linear_120_1752" x1="536" y1="532" x2="541.377" y2="315.81" gradientUnits="userSpaceOnUse">
<stop stop-color="#BD2121"/>
<stop offset="1" stop-color="#D55831"/>
</linearGradient>
<linearGradient id="paint5_linear_120_1752" x1="572" y1="532" x2="601.873" y2="531.619" gradientUnits="userSpaceOnUse">
<stop stop-color="#403CE6"/>
<stop offset="1" stop-color="#03B3FF"/>
</linearGradient>
<linearGradient id="paint6_linear_120_1752" x1="328" y1="532" x2="341.625" y2="188.025" gradientUnits="userSpaceOnUse">
<stop stop-color="#BD2121"/>
<stop offset="1" stop-color="#D55831"/>
</linearGradient>
<linearGradient id="paint7_linear_120_1752" x1="364" y1="532" x2="393.876" y2="531.727" gradientUnits="userSpaceOnUse">
<stop stop-color="#403CE6"/>
<stop offset="1" stop-color="#03B3FF"/>
</linearGradient>
</defs>
</svg>
