<svg width="64" height="64" viewBox="0 0 64 64" fill="none" xmlns="http://www.w3.org/2000/svg">
<path fill-rule="evenodd" clip-rule="evenodd" d="M32 26.7922C31.4475 26.7919 30.9175 26.5721 30.5269 26.1815C30.1363 25.7905 29.9172 25.2603 29.9172 24.7078C29.9175 24.1553 30.1373 23.6253 30.5279 23.2347C30.9188 22.8441 31.4487 22.6247 32.0016 22.6247C32.5541 22.625 33.0841 22.8447 33.4747 23.2354C33.8653 23.6263 34.0847 24.1562 34.0847 24.7091C34.0841 25.2616 33.864 25.7912 33.4734 26.1818C33.0824 26.5725 32.5525 26.7919 32 26.7922L32 26.7922ZM32 20.7972C30.9625 20.7969 29.9671 21.2085 29.233 21.9422C28.499 22.6756 28.0864 23.6706 28.086 24.7085C28.086 25.746 28.4979 26.7414 29.2317 27.4755C29.965 28.2092 30.9603 28.6214 31.998 28.6217C33.0358 28.6217 34.0309 28.2095 34.7646 27.4758C35.4983 26.7421 35.9105 25.7468 35.9105 24.7092C35.9095 23.6719 35.4973 22.6779 34.7642 21.9446C34.0312 21.2112 33.0372 20.7986 32 20.7973V20.7972ZM24.8926 35.7462L26.1177 41.1926L23.8641 43.5946L23.137 37.6169L24.8926 35.7462ZM32 14.4909C33.6592 15.5657 35.0907 16.9566 36.2121 18.5846C33.4322 18.0225 30.5678 18.0225 27.7879 18.5846C28.9105 16.9577 30.3418 15.5667 32 14.4909ZM38.6526 29.4517C39.1267 26.5042 38.7118 23.4823 37.4608 20.7717C33.8959 19.7295 30.1071 19.7295 26.5425 20.7717C25.2924 23.4818 24.8766 26.5024 25.348 29.4492L26.2931 33.6463C26.2964 33.6562 26.2964 33.6652 26.3001 33.6752L27.8779 40.6908C30.6003 41.2241 33.4002 41.2241 36.1225 40.6908L37.7003 33.6729C37.7037 33.6642 37.7037 33.6559 37.7073 33.6476L38.6524 29.4481L38.6526 29.4517ZM39.1077 35.7466L40.8617 37.617L40.1369 43.5947L37.8833 41.1927L39.1077 35.7466ZM33.7467 45.464C33.5944 46.9086 32.9824 48.2656 32.0001 49.3357C31.0187 48.2668 30.4063 46.9112 30.2531 45.4684C30.2099 45.0349 30.3216 44.2446 31.0726 42.9009C31.6909 42.9248 32.3089 42.9262 32.9273 42.9009C33.6783 44.2443 33.794 45.0336 33.7464 45.4647L33.7467 45.464ZM21.2684 37.4138L22.2857 45.7572H22.2853C22.3279 46.11 22.5709 46.4058 22.9083 46.5162C23.2458 46.6269 23.6165 46.5318 23.8595 46.2732L27.4283 42.4673C27.9819 42.5787 28.5391 42.6694 29.0996 42.7389V42.7386C28.6165 43.6336 28.3865 44.6432 28.4347 45.6588C28.6651 47.8513 29.7339 49.8698 31.4177 51.2927C31.7558 51.572 32.2442 51.572 32.5823 51.2927C34.2685 49.8702 35.3377 47.8496 35.5654 45.6554C35.6139 44.6405 35.3839 43.6319 34.9005 42.7383C35.4613 42.6684 36.0186 42.5777 36.5721 42.4666L40.1409 46.2725H40.1413C40.384 46.5315 40.755 46.6262 41.0924 46.5159C41.4298 46.4052 41.6725 46.1093 41.7151 45.7569L42.7324 37.4135C42.7636 37.1442 42.6759 36.8749 42.4913 36.6765L39.5948 33.59L40.4428 29.8217C40.4468 29.8034 40.4501 29.7845 40.4538 29.7659H40.4535C40.9864 26.4387 40.5106 23.0285 39.0881 19.9744C37.6652 16.9198 35.3607 14.3617 32.4711 12.6287C32.1812 12.4552 31.8195 12.4552 31.5299 12.6287C28.6403 14.3621 26.3361 16.9209 24.9139 19.9754C23.4913 23.03 23.0163 26.4405 23.5495 29.7678C23.5529 29.7864 23.5565 29.8053 23.5605 29.8236L24.4086 33.5939L21.512 36.6804L21.5117 36.6807C21.3271 36.8778 21.2384 37.1461 21.2686 37.4144L21.2684 37.4138Z" fill="#8287AA"/>
</svg>
