<svg width="64" height="64" viewBox="0 0 64 64" fill="none" xmlns="http://www.w3.org/2000/svg">
<path fill-rule="evenodd" clip-rule="evenodd" d="M27.7294 20.1345L32 14.8638L36.2714 20.1341L33.5766 20.1345C33.0716 20.1345 32.6623 20.5434 32.662 21.0483V27.2096H31.3378V21.0483C31.3382 20.806 31.2418 20.5733 31.0705 20.4017C30.899 20.2305 30.6663 20.1341 30.4239 20.1344L27.7294 20.1345ZM30.4239 29.0383H33.5765V29.038C33.8188 29.0383 34.0515 28.9419 34.2231 28.7704C34.3943 28.5988 34.4907 28.3661 34.4904 28.1237V21.9628H38.1892C38.5419 21.9625 38.8631 21.7597 39.0146 21.4412C39.1662 21.1227 39.121 20.7457 38.8986 20.4718L32.7104 12.8354C32.5366 12.6217 32.2759 12.4973 32.0003 12.4973C31.7247 12.4973 31.4641 12.6216 31.2902 12.8354L25.1021 20.4718C24.88 20.7457 24.8351 21.1227 24.9867 21.4409C25.1383 21.7593 25.4594 21.9621 25.8118 21.9621H29.51V28.1237C29.5096 28.366 29.6057 28.5987 29.7772 28.7703C29.9488 28.9418 30.1815 29.0382 30.4239 29.0379L30.4239 29.0383ZM30.2008 37.9498C30.2015 37.3135 30.5379 36.7247 31.0857 36.4009V39.4974C30.5375 39.1739 30.2011 38.5851 30.2008 37.9489V37.9498ZM33.7979 43.3767C33.7972 44.013 33.4605 44.6021 32.9123 44.9255V41.8281C33.4608 42.1512 33.7972 42.74 33.7979 43.3766V43.3767ZM30.2008 43.3767C30.1898 42.8794 29.7839 42.4821 29.2866 42.4821C28.7893 42.4821 28.383 42.8793 28.3724 43.3767C28.3734 44.1792 28.6403 44.9588 29.131 45.5938C29.622 46.2291 30.3092 46.6836 31.0858 46.887V47.3594C31.0805 47.6054 31.1743 47.8431 31.3465 48.019C31.5183 48.1945 31.7541 48.2939 32.0001 48.2939C32.2461 48.2939 32.4814 48.1945 32.6537 48.019C32.8255 47.8431 32.9196 47.6054 32.9143 47.3594V46.887C33.9572 46.6151 34.8255 45.8929 35.283 44.917C35.7408 43.9412 35.7408 42.8123 35.283 41.8362C34.8255 40.8601 33.9572 40.1384 32.9143 39.8661V36.401C33.4625 36.7245 33.799 37.3133 33.7996 37.9499C33.8105 38.4469 34.2165 38.8445 34.7138 38.8445C35.2111 38.8445 35.617 38.4469 35.628 37.9499C35.627 37.147 35.36 36.3674 34.869 35.7321C34.378 35.0971 33.6908 34.6427 32.9142 34.4392V33.9668C32.9032 33.4698 32.4973 33.0725 32 33.0725C31.5027 33.0725 31.0964 33.4698 31.0858 33.9668V34.4392C30.0425 34.7115 29.1745 35.4333 28.7168 36.4093C28.259 37.3853 28.259 38.5143 28.7168 39.4904C29.1745 40.4661 30.0425 41.1882 31.0858 41.4602V44.9246C30.5379 44.6008 30.2014 44.012 30.2008 43.3758L30.2008 43.3767ZM32 31.6533C29.6101 31.6533 27.3182 32.6027 25.628 34.2926C23.9383 35.9824 22.9887 38.2743 22.9887 40.6643C22.9887 43.0542 23.9382 45.3465 25.628 47.0363C27.3182 48.7261 29.6101 49.6756 32 49.6753C34.39 49.6753 36.6823 48.7258 38.3717 47.0356C40.0615 45.3455 41.011 43.0535 41.0107 40.6636C41.008 38.2747 40.0576 35.9844 38.3684 34.2952C36.6792 32.6061 34.389 31.6559 32 31.6533ZM21.1609 40.6635C21.1609 43.5381 22.3028 46.2952 24.3354 48.3278C26.3684 50.3604 29.125 51.5023 31.9997 51.5023C34.8744 51.5023 37.6314 50.3604 39.6643 48.3278C41.6969 46.2952 42.8388 43.5382 42.8388 40.6635C42.8388 37.7888 41.6969 35.0318 39.6643 32.9992C37.6314 30.9663 34.8744 29.8244 31.9997 29.8244C29.126 29.8277 26.371 30.9707 24.3391 33.0029C22.3072 35.0348 21.1642 37.7898 21.1609 40.6635Z" fill="#8287AA"/>
</svg>
