<svg width="64" height="64" viewBox="0 0 64 64" fill="none" xmlns="http://www.w3.org/2000/svg">
<path fill-rule="evenodd" clip-rule="evenodd" d="M18.1702 26.0766V27.4496H19.5415H19.5412C20.0462 27.4496 20.4554 27.8588 20.4554 28.3638C20.4554 28.8685 20.0461 29.2777 19.5412 29.2777H18.1702V30.649C18.1755 30.8947 18.0814 31.1324 17.9096 31.3082C17.7374 31.4841 17.5016 31.5832 17.256 31.5832C17.01 31.5832 16.7742 31.4841 16.602 31.3082C16.4302 31.1324 16.3361 30.8947 16.3417 30.649V29.2763H14.9704C14.4654 29.2763 14.0565 28.8671 14.0565 28.3624C14.0565 27.8575 14.4655 27.4482 14.9704 27.4482H16.3417V26.0766C16.3524 25.5796 16.7586 25.1823 17.256 25.1823C17.753 25.1823 18.1592 25.5795 18.1702 26.0766H18.1702ZM47.6587 26.0766V27.4496H49.0317C49.5364 27.4496 49.9456 27.8588 49.9456 28.3638C49.9456 28.8685 49.5364 29.2777 49.0317 29.2777H47.6587V30.649C47.664 30.8947 47.5699 31.1324 47.3981 31.3082C47.2259 31.4841 46.9905 31.5832 46.7445 31.5832C46.4985 31.5832 46.2628 31.4841 46.0909 31.3082C45.9187 31.1324 45.8249 30.8947 45.8302 30.649V29.2763H44.4589C43.9543 29.2763 43.545 28.8671 43.545 28.3624C43.545 27.8575 43.9543 27.4482 44.4589 27.4482H45.8302V26.0766C45.8409 25.5796 46.2471 25.1823 46.7445 25.1823C47.2418 25.1823 47.6477 25.5795 47.6587 26.0766H47.6587ZM32.914 18.6657V20.0387H34.2857C34.7903 20.0387 35.1996 20.4479 35.1996 20.9529C35.1996 21.4576 34.7903 21.8668 34.2857 21.8668H32.914V23.2384C32.914 23.7431 32.5048 24.1523 31.9998 24.1523C31.4952 24.1523 31.0859 23.7431 31.0859 23.2384V21.8647H29.7146C29.21 21.8647 28.8007 21.4555 28.8007 20.9505C28.8007 20.4459 29.21 20.0367 29.7146 20.0367H31.0859V18.6653C31.0859 18.1607 31.4952 17.7515 31.9998 17.7515C32.5048 17.7515 32.914 18.1607 32.914 18.6653V18.6657ZM36.2189 26.9915L39.676 32.9795V33.3844H24.3236V32.9795L27.7818 26.9915H36.2189ZM26.4623 25.6198L22.6182 32.2771C22.5381 32.4164 22.4955 32.574 22.4955 32.7345V34.2973C22.4955 34.802 22.9048 35.2112 23.4094 35.2112H40.5898C40.8325 35.2115 41.0652 35.1151 41.2364 34.9436C41.408 34.7724 41.504 34.5397 41.504 34.2973V32.7345C41.5044 32.5739 41.4618 32.416 41.3814 32.2771L37.538 25.6198C37.3747 25.3372 37.0732 25.163 36.7467 25.1627H27.2557C26.9289 25.1627 26.627 25.3369 26.4641 25.6198L26.4623 25.6198ZM49.6733 44.4198L34.3227 44.4201V44.0162L37.7795 38.0282L46.2146 38.0279L49.6717 44.0159V44.4198H49.6733ZM47.5357 36.6568C47.3725 36.3736 47.071 36.1994 46.7442 36.1994H37.2531C36.9263 36.1994 36.6244 36.3736 36.4612 36.6568L32.6161 43.3144C32.536 43.4534 32.4938 43.611 32.4941 43.7716V45.3344C32.4938 45.5771 32.5898 45.8098 32.7614 45.981C32.9329 46.1525 33.1656 46.2489 33.408 46.2489H50.5876C50.8299 46.2489 51.0626 46.1525 51.2338 45.981C51.4054 45.8094 51.5018 45.5771 51.5015 45.3344V43.7716C51.5021 43.611 51.4596 43.4531 51.3788 43.3144L47.5357 36.6568ZM14.3255 44.0162L17.7847 38.0279H26.2205L29.6776 44.0159V44.4198L14.3253 44.4201L14.3255 44.0162ZM13.4116 46.2489H30.5921C30.8348 46.2489 31.0671 46.1525 31.2387 45.981C31.4099 45.8094 31.5063 45.577 31.5063 45.3343V43.7715C31.5063 43.611 31.4641 43.4534 31.3836 43.3144L27.5402 36.6568C27.3767 36.3739 27.0748 36.1997 26.748 36.1994H17.2569C16.9301 36.1994 16.6286 36.3739 16.4654 36.6568L12.6199 43.3144C12.5398 43.4534 12.4976 43.611 12.4973 43.7715V45.3343C12.4973 45.8393 12.9068 46.2489 13.4118 46.2489L13.4116 46.2489Z" fill="#8287AA"/>
</svg>
