<svg width="222" height="222" viewBox="0 0 222 222" fill="none" xmlns="http://www.w3.org/2000/svg">
<path d="M8 8L214 8V214H8L8 8Z" stroke="#181939" stroke-width="16"/>
<path d="M66.7675 78.7848H145.91V157.928H66.7675V78.7848Z" stroke="#414363" stroke-width="16"/>
<mask id="path-3-inside-1_125_1735" fill="white">
<path d="M29.3838 35.8923L187.955 35.8923V194.464H29.3838L29.3838 35.8923Z"/>
</mask>
<path d="M29.3838 35.8923L29.3838 17.8923H11.3838V35.8923L29.3838 35.8923ZM187.955 35.8923H205.955V17.8923H187.955V35.8923ZM187.955 194.464V212.464H205.955V194.464H187.955ZM29.3838 194.464H11.3838V212.464H29.3838V194.464ZM29.3838 53.8923L187.955 53.8923V17.8923L29.3838 17.8923L29.3838 53.8923ZM169.955 35.8923V194.464H205.955V35.8923H169.955ZM187.955 176.464H29.3838V212.464H187.955V176.464ZM47.3838 194.464L47.3838 35.8923L11.3838 35.8923L11.3838 194.464H47.3838Z" fill="#282947" mask="url(#path-3-inside-1_125_1735)"/>
</svg>
