<svg width="212" height="212" viewBox="0 0 212 212" fill="none" xmlns="http://www.w3.org/2000/svg">
<circle cx="106" cy="106" r="106" fill="#181939"/>
<path d="M174.714 29C179.843 29 184 33.1535 184 38.2771V173.723C184 178.846 179.843 183 174.714 183H37.2857C32.1574 183 28 178.846 28 173.723L28 38.2771C28 33.1535 32.1574 29 37.2857 29L174.714 29Z" fill="#282947"/>
<path opacity="0.28" d="M97.6887 34.0961C101.134 27.3013 110.866 27.3013 114.311 34.0961L182.986 169.524C186.118 175.7 181.616 183 174.675 183H37.3254C30.3839 183 25.882 175.7 29.0142 169.524L97.6887 34.0961Z" fill="#8287AA"/>
</svg>
