<svg width="12" height="12" viewBox="0 0 12 12" fill="none" xmlns="http://www.w3.org/2000/svg">
	<circle cx="6" cy="6" r="5" fill="#22264B"/>
	<path fill="#919BB9" d="M5.76333 4.2605C5.89904 4.39918 6.08317 4.47719 6.27526 4.47739V4.4774C6.46735 4.47805 6.65177 4.40059 6.78777 4.2622C6.92377 4.12381 7.00014 3.93587 7 3.73992C7.00028 3.54396 6.92426 3.35593 6.78864 3.21714C6.65303 3.0784 6.4689 3.0003 6.27686 3C6.08477 2.99975 5.90044 3.07736 5.76444 3.2157C5.62844 3.35409 5.55193 3.54192 5.55174 3.73788C5.55154 3.93383 5.62766 4.12182 5.76333 4.2605ZM5.39709 9H5.78001L5.78 8.99996C6.11412 8.82291 6.41177 8.58831 6.70236 8.34949C6.7751 8.28762 6.84332 8.22041 6.90649 8.14844C6.93541 8.11409 6.95976 8.07593 6.97883 8.03505C7.00382 7.99099 6.99887 7.93571 6.96651 7.897C6.937 7.85785 6.88601 7.8428 6.8406 7.85983C6.7647 7.88923 6.6865 7.91982 6.61119 7.95342C6.59036 7.96204 6.56971 7.97134 6.54907 7.98063C6.50794 7.99914 6.46682 8.01765 6.42414 8.03084C6.40081 8.04405 6.37199 8.04173 6.35098 8.025C6.32992 8.00826 6.32075 7.9803 6.32764 7.95402C6.34016 7.83707 6.35976 7.72104 6.38649 7.60661C6.55626 6.90413 6.7253 6.20167 6.89352 5.49919C6.97649 5.15658 6.80003 4.87811 6.45942 4.80793C6.36825 4.78882 6.27359 4.79887 6.18824 4.83673C6.12288 4.86109 6.06049 4.89311 6.00236 4.93211V4.93216C5.72997 5.13317 5.46292 5.33422 5.20057 5.54482C5.1265 5.61625 5.05929 5.6948 5 5.77944V5.92164C5.04575 5.985 5.13163 6.00173 5.19708 5.96005H5.19704C5.24867 5.93991 5.29927 5.91644 5.34993 5.89295C5.38529 5.87654 5.42069 5.86013 5.45647 5.84482C5.49408 5.82666 5.53352 5.8128 5.57413 5.80345C5.59878 5.79335 5.62697 5.7984 5.64677 5.81646C5.66661 5.83453 5.67471 5.86249 5.66763 5.88863C5.65706 5.99197 5.63959 6.09443 5.61528 6.1953V6.19525C5.55645 6.43829 5.4973 6.68127 5.43815 6.92424C5.31985 7.41015 5.20155 7.89607 5.08588 8.3825C5.02121 8.64714 5.13765 8.87399 5.38001 8.98678C5.38618 8.9905 5.3919 8.9949 5.39709 9Z"/>
</svg>