<svg width="24" height="24" viewBox="0 0 24 24" fill="none" xmlns="http://www.w3.org/2000/svg">
<path d="M18.8393 24C17.8873 24.0009 16.9741 23.6234 16.3007 22.9509L11.0442 17.6958V17.6955C8.44781 18.3122 5.71172 17.7412 3.57919 16.1378C1.44637 14.5343 0.138477 12.065 0.010646 9.39998C-0.0400222 8.37195 0.0904358 7.34277 0.39634 6.35995C0.490101 6.06075 0.733023 5.83209 1.0375 5.75705C1.34174 5.68178 1.66326 5.77102 1.88534 5.9921L5.01609 9.12206C5.35253 9.4589 5.80926 9.64803 6.28537 9.64803C6.76148 9.64803 7.21801 9.4589 7.55465 9.12206L9.12439 7.51673C9.46131 7.18036 9.65048 6.72375 9.65048 6.24776C9.65048 5.77177 9.46131 5.31535 9.12439 4.9788L5.99364 1.88477C5.7725 1.66274 5.68324 1.34129 5.75853 1.03714C5.83359 0.732736 6.0623 0.489874 6.36158 0.396143C7.3418 0.0907878 8.36796 -0.0398714 9.3934 0.0105454C11.6181 0.127243 13.7208 1.06318 15.296 2.63797C16.8714 4.21277 17.8077 6.31501 17.9241 8.5391C17.9651 9.37989 17.8867 10.2223 17.6909 11.0413L22.9474 16.2965H22.9476C23.6214 16.9694 24 17.8824 24 18.8345C24 19.7865 23.6214 20.6995 22.9476 21.3725L21.3688 22.9508C20.6976 23.6212 19.7879 23.9985 18.8392 23.9999L18.8393 24ZM11.3131 15.803C11.5515 15.8016 11.7807 15.8953 11.95 16.0632L17.5744 21.6862C17.9108 22.023 18.3676 22.2121 18.8437 22.2121C19.3198 22.2121 19.7763 22.023 20.1129 21.6862L21.6827 20.0718C22.0196 19.7354 22.2088 19.2788 22.2088 18.8028C22.2088 18.3268 22.0196 17.8704 21.6827 17.5339L16.0583 11.9109C15.943 11.7961 15.8613 11.6517 15.8218 11.4938C15.7822 11.3357 15.7865 11.17 15.8341 11.0142C16.0739 10.2307 16.1741 9.41101 16.13 8.59295C16.0365 6.81812 15.2876 5.14104 14.028 3.88698C12.7687 2.63268 11.0883 1.89036 9.31255 1.80395C9.01398 1.78691 8.71447 1.78691 8.41567 1.80395L10.3443 3.73215H10.3441C11.0179 4.40508 11.3965 5.3181 11.3965 6.27014C11.3965 7.22218 11.0179 8.13514 10.3441 8.80813L8.76534 10.3865C8.09243 11.0599 7.17924 11.4384 6.22672 11.4384C5.27444 11.4384 4.36126 11.0599 3.68834 10.3865L1.81336 8.46727C1.7956 8.766 1.7956 9.06543 1.81336 9.36417C1.90049 11.1437 2.64654 12.8272 3.90685 14.087C5.16691 15.347 6.85078 16.0929 8.63085 16.1797C9.44935 16.2223 10.2688 16.1222 11.0527 15.8838C11.1344 15.8407 11.2223 15.8104 11.3129 15.7941L11.3131 15.803Z" fill="white"/>
</svg>
