<svg width="24" height="24" viewBox="0 0 24 24" fill="none" xmlns="http://www.w3.org/2000/svg">
<path d="M13.7142 9.42851H0.857225C0.629856 9.42851 0.411765 9.33824 0.251127 9.17761C0.0902747 9.01676 5.30244e-06 8.79888 5.30244e-06 8.57151V3.42864C5.30244e-06 2.5194 0.361307 1.64722 1.00428 1.00428C1.64727 0.361287 2.51938 0 3.42862 0H13.7141C13.9412 0 14.1593 0.0902692 14.3202 0.251123C14.4808 0.41175 14.571 0.629848 14.571 0.857225V8.57179C14.571 8.79916 14.4808 9.01703 14.3202 9.17789C14.1593 9.33852 13.9412 9.42879 13.7141 9.42879L13.7142 9.42851ZM1.71439 7.71428H12.857V1.71464H3.42873C2.97399 1.71464 2.53803 1.89518 2.21653 2.21666C1.89504 2.53815 1.71451 2.9741 1.71451 3.42887L1.71439 7.71428ZM6.85723 24H3.42861C2.51938 24 1.64721 23.6389 1.00428 22.9959C0.361284 22.353 0 21.4808 0 20.5716V11.9999C0 11.7727 0.0902686 11.5546 0.251121 11.3938C0.411747 11.2331 0.629844 11.1429 0.857219 11.1429H6.85739H6.85717C7.08454 11.1429 7.30263 11.2331 7.46327 11.3938C7.62412 11.5546 7.71439 11.7727 7.71439 11.9999V23.1425C7.71439 23.3699 7.62412 23.5878 7.46327 23.7486C7.30264 23.9093 7.08454 23.9995 6.85717 23.9995L6.85723 24ZM1.71439 12.8573V20.5719C1.71439 21.0264 1.89493 21.4626 2.21642 21.7841C2.5379 22.1056 2.97385 22.2861 3.42861 22.2861H6V12.8578L1.71439 12.8573ZM20.5715 24H10.2861C10.0587 24 9.84084 23.9097 9.67997 23.7491C9.51935 23.5882 9.42885 23.3704 9.42885 23.143V14.5713C9.42885 14.3439 9.51935 14.126 9.67997 13.9652C9.84082 13.8045 10.0587 13.7143 10.2861 13.7143H23.143C23.3704 13.7143 23.5882 13.8045 23.7491 13.9652C23.9097 14.126 24 14.3439 24 14.5713V20.5715C24 21.4807 23.6389 22.3529 22.996 22.9958C22.353 23.6388 21.4809 23.9999 20.5716 23.9999L20.5715 24ZM11.1432 22.2858H20.5715C21.026 22.2858 21.4622 22.1052 21.7837 21.7837C22.1052 21.4623 22.2857 21.0261 22.2857 20.5715V15.4287H11.1431L11.1432 22.2858ZM23.143 12.0003H17.1428C16.9155 12.0003 16.6976 11.91 16.5367 11.7494C16.3761 11.5885 16.2858 11.3706 16.2858 11.1433V0.857753C16.2858 0.630382 16.3761 0.412288 16.5367 0.251649C16.6976 0.0907959 16.9155 0.000526712 17.1428 0.000526712H20.5714C21.4807 0.000526712 22.3528 0.361831 22.9958 1.00481C23.6388 1.64781 23.9998 2.51992 23.9998 3.42916V11.1437C23.9998 11.3711 23.9096 11.589 23.7489 11.7498C23.5881 11.9105 23.3702 12.0007 23.1428 12.0007L23.143 12.0003ZM18.0002 10.286H22.2858V3.42922C22.2858 2.97447 22.1052 2.53851 21.7838 2.21701C21.4623 1.89551 21.0261 1.71498 20.5716 1.71498H18.0002V10.286Z" fill="white"/>
</svg>
