<svg width="24" height="24" viewBox="0 0 24 24" fill="none" xmlns="http://www.w3.org/2000/svg">
<path d="M2 7.45328C2.00054 7.28533 2.04752 7.12079 2.13573 6.97788C2.22412 6.83513 2.35013 6.71956 2.50008 6.64396L11.5934 2.09721C11.8508 1.9676 12.1545 1.9676 12.4119 2.09721L21.5052 6.64396C21.7049 6.74621 21.8597 6.91866 21.9398 7.12802C22.0201 7.33737 22.0201 7.56905 21.9398 7.77857C21.8597 7.98793 21.7049 8.16038 21.5052 8.26263L18.5863 9.72669L21.5052 11.1908C21.7049 11.293 21.8597 11.4653 21.9398 11.6748C22.0201 11.8842 22.0201 12.1158 21.9398 12.3252C21.8597 12.5347 21.7049 12.707 21.5052 12.8092L18.5863 14.2733L21.5052 15.7374C21.7049 15.8396 21.8597 16.0121 21.9398 16.2214C22.0201 16.431 22.0201 16.6625 21.9398 16.872C21.8597 17.0813 21.7049 17.2538 21.5052 17.356L12.4119 21.9028C12.1545 22.0324 11.8508 22.0324 11.5934 21.9028L2.50008 17.356C2.30045 17.2538 2.14581 17.0813 2.06552 16.872C1.98542 16.6624 1.98542 16.431 2.06552 16.2214C2.14581 16.0121 2.30045 15.8396 2.50008 15.7374L5.41923 14.2733L2.50026 12.8092H2.50008C2.30045 12.707 2.14581 12.5347 2.06553 12.3252C1.98542 12.1158 1.98542 11.8842 2.06553 11.6748C2.14581 11.4653 2.30045 11.293 2.50008 11.1908L5.41923 9.72669L2.50027 8.26263H2.50009C2.35014 8.18703 2.22413 8.07146 2.13574 7.92853C2.04753 7.7856 2.00055 7.62124 2.00001 7.45332L2 7.45328ZM4.94634 16.5464L12.0027 20.0746L19.0591 16.5464L16.5491 15.2916L12.4117 17.3558C12.1543 17.4854 11.8506 17.4854 11.5931 17.3558L7.45566 15.2916L4.94634 16.5464ZM4.94634 11.9997L12.0027 15.5279L19.0591 11.9997L16.5491 10.7448L12.4117 12.809C12.1543 12.9388 11.8506 12.9388 11.5931 12.809L7.45566 10.7448L4.94634 11.9997ZM12.0027 10.9813L19.0591 7.45309L12.0027 3.92487L4.94634 7.45309L12.0027 10.9813Z" fill="white"/>
</svg>
