<svg width="40" height="40" viewBox="0 0 40 40" fill="none" xmlns="http://www.w3.org/2000/svg">
	<circle cx="20" cy="20" r="17.5" stroke="white"/>
	<path d="M26.9144 15.5673C26.8297 15.3387 26.6604 15.1648 26.4572 15.0733C26.3558 15.0276 26.2455 15 26.1353 15H23.2396C22.774 15 22.3926 15.4116 22.3926 15.9151C22.3926 16.4181 22.7736 16.8301 23.2396 16.8301H24.0949L20.5554 20.6543L18.7857 18.7512C18.4555 18.3944 17.922 18.3944 17.5918 18.7512L13.2477 23.4447C12.9174 23.8015 12.9174 24.3779 13.2477 24.7347C13.417 24.9176 13.6286 25 13.849 25C14.0691 25 14.2811 24.9085 14.4504 24.7347L18.2015 20.6818L19.9713 22.5849C20.3015 22.9417 20.835 22.9417 21.1652 22.5849L25.3061 18.1109V19.0351C25.3061 19.5381 25.6871 19.9501 26.1531 19.9501C26.6186 19.9501 27 19.5385 27 19.0351V15.9064C26.9824 15.805 26.9568 15.6863 26.9145 15.5673L26.9144 15.5673Z" fill="white"/>
</svg>