<svg width="22" height="18" viewBox="0 0 22 18" fill="white" xmlns="http://www.w3.org/2000/svg">
	<path d="M1.34878 7.83904C1.34878 7.83904 11.0789 3.88771 14.4534 2.49634C15.747 1.93984 20.134 0.158893 20.134 0.158893C20.134 0.158893 22.1588 -0.620205 21.99 1.27197C21.9337 2.05114 21.4838 4.77811 21.0339 7.72774C20.3589 11.9018 19.6278 16.4653 19.6278 16.4653C19.6278 16.4653 19.5153 17.7453 18.5592 17.9679C17.6031 18.1905 16.0282 17.1888 15.747 16.9662C15.522 16.7993 11.5288 14.2948 10.0665 13.0704C9.67274 12.7365 9.22283 12.0687 10.1227 11.2896C12.1475 9.45301 14.5659 7.17125 16.0282 5.72427C16.7032 5.05639 17.378 3.49812 14.5659 5.39029C10.5727 8.11733 6.63564 10.6774 6.63564 10.6774C6.63564 10.6774 5.73572 11.2339 4.04845 10.733C2.3611 10.2322 0.392589 9.56431 0.392589 9.56431C0.392589 9.56431 -0.957168 8.72952 1.34878 7.83904Z"/>
</svg>