<svg width="26" height="14" viewBox="0 0 26 14" fill="white" xmlns="http://www.w3.org/2000/svg">
	<path d="M14.6708 7C14.6708 10.8631 11.3944 14 7.33542 14C3.27649 14 0 10.8631 0 7C0 3.13686 3.27649 0 7.33542 0C11.3944 0 14.6708 3.13686 14.6708 7ZM22.7072 7C22.7072 10.6313 21.0608 13.5828 19.0395 13.5828C17.0182 13.5828 15.3718 10.6313 15.3718 7C15.3718 3.36865 17.0182 0.417216 19.0395 0.417216C21.0608 0.417216 22.7072 3.3532 22.7072 7ZM26 7C26 10.2605 25.4295 12.9029 24.7122 12.9029C23.995 12.9029 23.4244 10.2605 23.4244 7C23.4244 3.73951 23.995 1.09713 24.7122 1.09713C25.4295 1.09713 26 3.73951 26 7Z"/>
</svg>