<svg width="20" height="14" viewBox="0 0 20 14" fill="white" xmlns="http://www.w3.org/2000/svg">
	<path d="M16.9566 1.1824C19.2154 4.23337 20.3309 7.67479 19.9139 11.6366C19.9121 11.6534 19.9026 11.6688 19.8876 11.6789C18.1771 12.8328 16.5199 13.533 14.8859 13.9974C14.8732 14.001 14.8596 14.0008 14.847 13.9969C14.8344 13.993 14.8234 13.9855 14.8156 13.9756C14.4382 13.4931 14.0952 12.9844 13.7947 12.4501C13.7774 12.4187 13.7932 12.3808 13.8287 12.3684C14.3734 12.1798 14.8914 11.9538 15.3896 11.6862C15.4289 11.6651 15.4314 11.6134 15.3951 11.5886C15.2894 11.5165 15.1846 11.4407 15.0844 11.3649C15.0656 11.3509 15.0404 11.3482 15.0191 11.3576C11.7844 12.7299 8.24091 12.7299 4.96792 11.3576C4.94667 11.3489 4.92142 11.3518 4.90317 11.3656C4.80317 11.4414 4.69817 11.5165 4.59342 11.5886C4.55717 11.6134 4.56017 11.6651 4.59967 11.6862C5.09792 11.9488 5.61592 12.1798 6.15991 12.3693C6.19517 12.3817 6.21192 12.4187 6.19442 12.4501C5.90042 12.985 5.55742 13.4938 5.17292 13.9763C5.15617 13.9958 5.12867 14.0048 5.10267 13.9974C3.47642 13.533 1.81917 12.8328 0.108676 11.6789C0.0944255 11.6688 0.0841756 11.6527 0.0826756 11.636C-0.265824 8.20901 0.444425 4.73911 3.03717 1.18172C3.04342 1.1723 3.05292 1.16495 3.06392 1.16059C4.33967 0.622692 5.70642 0.226966 7.13491 0.000968189C7.16091 -0.00270657 7.18691 0.00831771 7.20041 0.0294476C7.37691 0.316538 7.57866 0.684703 7.71516 0.985575C9.22091 0.774276 10.7502 0.774276 12.2874 0.985575C12.4239 0.691134 12.6187 0.316538 12.7944 0.0294476C12.8007 0.0189653 12.8104 0.0105674 12.8221 0.00545295C12.8339 0.000338472 12.8471 -0.00123114 12.8599 0.000968189C14.2892 0.227655 15.6559 0.623381 16.9306 1.16059C16.9419 1.16495 16.9511 1.1723 16.9566 1.1824ZM8.48066 7.69822C8.49641 6.68513 7.69241 5.84682 6.68316 5.84682C5.68217 5.84682 4.88592 6.67778 4.88592 7.69822C4.88592 8.71842 5.69792 9.54938 6.68316 9.54938C7.68441 9.54938 8.48066 8.71842 8.48066 7.69822ZM15.1261 7.69822C15.1419 6.68513 14.3379 5.84682 13.3289 5.84682C12.3277 5.84682 11.5314 6.67778 11.5314 7.69822C11.5314 8.71842 12.3434 9.54938 13.3289 9.54938C14.3379 9.54938 15.1261 8.71842 15.1261 7.69822Z"/>
</svg>