<svg width="19" height="15" viewBox="0 0 19 15" fill="white" xmlns="http://www.w3.org/2000/svg">
	<path d="M18.9155 1.80191C18.3009 2.05523 17.6548 2.23163 16.9931 2.32675C17.3024 2.27596 17.7576 1.74266 17.9388 1.5268C18.2141 1.2012 18.4239 0.829495 18.5575 0.430576C18.5575 0.400948 18.5885 0.358623 18.5575 0.33746C18.5419 0.32931 18.5245 0.325039 18.5067 0.325039C18.4889 0.325039 18.4715 0.32931 18.4559 0.33746C17.7374 0.710101 16.9727 0.994511 16.1799 1.18396C16.1523 1.19205 16.1229 1.19277 16.0948 1.18606C16.0668 1.17935 16.0412 1.16546 16.0208 1.14587C15.9591 1.0755 15.8927 1.00905 15.8219 0.946944C15.4986 0.66948 15.1317 0.442388 14.7348 0.273972C14.1989 0.0634367 13.6201 -0.0277416 13.0421 0.0073231C12.4813 0.0412459 11.9337 0.185317 11.4335 0.430576C10.9409 0.68915 10.5079 1.04043 10.1607 1.46331C9.79542 1.89856 9.53171 2.40368 9.3873 2.9447C9.26821 3.45931 9.25471 3.99118 9.34752 4.51073C9.34752 4.59961 9.34752 4.61231 9.26797 4.59961C6.11695 4.1552 3.53161 3.08437 1.41914 0.786108C1.32634 0.684527 1.27772 0.684527 1.20259 0.786108C0.28336 2.12359 0.729718 4.23985 1.87876 5.28528C2.03344 5.42495 2.19253 5.5604 2.36047 5.68737C1.83364 5.65155 1.31968 5.51482 0.849041 5.28528C0.760653 5.23026 0.71204 5.25989 0.707621 5.36147C0.695093 5.5023 0.695093 5.64389 0.707621 5.78472C0.799834 6.45964 1.07756 7.09899 1.51239 7.6374C1.94722 8.1758 2.52357 8.59395 3.18248 8.84907C3.3431 8.91496 3.51047 8.96461 3.68187 8.9972C3.19416 9.08916 2.69395 9.10347 2.20137 9.03953C2.09531 9.01837 2.05553 9.07339 2.09531 9.17074C2.74496 10.8637 4.15474 11.3801 5.18888 11.6679C5.3303 11.6891 5.47172 11.6891 5.63082 11.723C5.63082 11.723 5.63082 11.723 5.6043 11.7483C5.29936 12.2816 4.06635 12.6414 3.50067 12.8276C2.46816 13.1828 1.36731 13.3186 0.274521 13.2255C0.102165 13.2001 0.0623902 13.2043 0.0181963 13.2255C-0.0259975 13.2467 0.0181963 13.2932 0.0668096 13.3355C0.287779 13.4752 0.508748 13.598 0.738556 13.7165C1.4227 14.0738 2.14597 14.3577 2.89522 14.563C6.77544 15.5872 11.1418 14.8339 14.0542 12.0616C16.3434 9.88603 17.1477 6.88518 17.1477 3.88008C17.1477 3.7658 17.2936 3.69808 17.3776 3.63883C17.9567 3.20664 18.4673 2.69624 18.8934 2.12359C18.9672 2.03822 19.005 1.92954 18.9995 1.81884C18.9995 1.75536 18.9995 1.76805 18.9155 1.80191Z"/>
</svg>